<svg width="590" height="768" viewBox="0 0 590 768" fill="none" xmlns="http://www.w3.org/2000/svg">
<path d="M561.498 195.036C446.51 -82.2139 138.048 -4.09976 0 68.9534V770L450.336 767.36C624.059 545.559 597.518 292.734 561.498 195.036Z" fill="#407BFF" fill-opacity="0.12"/>
<path d="M140.386 190.928C149.982 193.644 158.232 202.231 159.539 212.601C161.132 225.249 152.831 237.974 155.861 250.327C158.496 261.071 168.997 268.169 171.566 278.931C173.644 287.634 169.827 297.068 163.561 303.149C157.293 309.23 148.945 312.405 140.595 314.2C131.371 316.182 121.695 316.637 112.606 314.051C98.4267 310.019 86.4415 298.279 81.5959 283.682C76.6007 268.63 79.4794 252.638 82.9782 237.62C86.1762 223.886 91.5278 199.652 107.308 196.782C118.912 194.672 128.144 187.461 140.386 190.928Z" fill="black"/>
<path d="M159.633 434.553C164.315 540.051 152.386 742.569 152.386 742.569C152.386 742.569 139.099 745.232 129.066 741.963L105.132 434.553H159.633Z" fill="#FEAE93"/>
<path d="M60.884 434.553C59.1315 547.442 76.5762 742.569 76.5762 742.569C76.5762 742.569 88.6941 745.231 99.8956 741.963L115.386 434.553H60.884Z" fill="#FEAE93"/>
<path d="M187.269 751.82C169.244 748.71 160.281 749.012 152.386 742.568C152.386 742.568 143.258 744.563 129.067 741.962C129.067 741.962 121.873 755.416 125.895 768.12H139.631L143.461 761.204L151.355 768.254H201.663C201.663 768.256 205.293 754.93 187.269 751.82Z" fill="#164A4F"/>
<path d="M41.693 751.82C59.7178 748.71 68.6808 749.012 76.5763 742.568C76.5763 742.568 85.7044 744.563 99.8957 741.962C99.8957 741.962 107.089 755.416 103.067 768.12H89.3313L85.5023 761.204L77.6084 768.254H27.3012C27.2981 768.256 23.6682 754.93 41.693 751.82Z" fill="#164A4F"/>
<path d="M236.654 381.82L234.097 361.76C239.844 357.884 239.613 348.773 243.855 348.683C248.083 348.594 244.606 361.423 244.606 361.423C244.606 361.423 271.171 354.15 271.923 357.982C272.674 361.818 261.607 365.537 261.607 365.537C261.607 365.537 267.37 375.816 261.732 380.881C255.078 386.859 246.279 381.255 236.654 381.82Z" fill="#FEAE93"/>
<path d="M278.89 385.301L279.297 384.867L271.772 377.812L271.364 378.246L278.89 385.301Z" fill="#CFFDF8"/>
<path d="M248.677 360.013L252.141 356.326L248.888 353.27L245.424 356.957L248.677 360.013Z" fill="#65C0BA"/>
<path d="M244.784 357.907L249.81 352.557L248.798 351.607L243.772 356.956L244.784 357.907Z" fill="#65C0BA"/>
<path d="M265.987 378.511L271.692 372.439L252.608 354.51L246.903 360.582L265.987 378.511Z" fill="#CFFDF8"/>
<path d="M271.284 380.115L273.61 377.641L270.573 373.63L267.091 377.336L271.284 380.115Z" fill="#65C0BA"/>
<path d="M144.007 288.515C158.521 294.587 169.852 364.975 169.852 364.975L236.692 358.095C236.692 358.095 242.175 374.694 239.162 383.869C239.162 383.869 168.297 396.184 157.017 390.996C146.812 386.302 136.271 336.4 136.271 336.4L144.007 288.515Z" fill="white"/>
<path d="M60.8811 434.553C47.5229 496.728 47.5229 591.78 47.5229 591.78C47.5229 591.78 107.082 603.437 177.698 587.163L159.633 434.553H60.8811Z" fill="#65C0BA"/>
<path d="M60.8809 434.552C62.1335 435.842 115.153 448.134 159.633 434.552L144.848 359.331L144.026 355.136C144.026 355.136 152.521 351.639 153.917 335.82C154.809 325.773 152.833 310.756 144.007 288.517L138.167 285.886L129.009 282.426L109.076 281.46L88.6323 287.12V287.264C88.6323 287.264 89.2432 303.177 84.3745 333.813C84.0999 335.533 83.813 337.298 83.5029 339.112C82.5233 344.846 81.3015 351.117 79.9362 357.612C72.5313 392.759 60.8809 434.552 60.8809 434.552Z" fill="#65C0BA"/>
<path d="M132.365 283.694C123.408 365.878 147.475 573.555 147.475 573.555C147.475 573.555 171.134 572.162 181.749 567.951L147.465 359.437C147.465 359.437 169.124 343.207 144.006 288.517L132.365 283.694Z" fill="white"/>
<path d="M105.375 282.485C105.375 282.485 118.923 428.445 110.258 575.838C110.258 575.838 75.521 581.292 44.678 573.555C44.678 573.555 52.8496 438.522 75.7925 355.05L88.6323 287.121L105.375 282.485Z" fill="white"/>
<path d="M100.209 458.791C100.209 458.791 80.0102 457.81 67.246 458.791C67.246 458.791 58.6902 497.786 81.1333 499.469C103.575 501.152 100.209 458.791 100.209 458.791Z" fill="#CFFDF8"/>
<path d="M304.875 340.621C285.685 346.326 256.539 420.775 254.399 421.714C252.738 422.446 173.254 434.551 173.254 434.551V450.101C173.254 450.101 263.173 449.719 270.943 443.935C284.479 433.858 304.873 393.852 304.873 393.852V340.621H304.875Z" fill="#FFBDA8"/>
<path d="M182.749 441.777C182.749 441.777 179.344 449.745 171.75 450.554C164.286 451.348 160.284 447.059 160.284 447.059C160.284 447.059 155.118 457.383 152.562 457.429C150.004 457.476 154.612 445.242 154.612 445.242C154.612 445.242 144.54 454.259 142.943 452.718C141.346 451.177 151.394 440.765 151.394 440.765C151.394 440.765 137.165 444.972 136.3 442.081C135.435 439.189 152.997 433.936 152.997 433.936C152.997 433.936 141.294 428.132 142.46 425.634C144.14 422.038 167.597 430.013 167.649 429.721C167.703 429.43 164.943 417.856 169.759 417.591C174.406 417.333 172.131 423.362 175.58 427.72C177.183 429.741 184.338 436.284 182.749 441.777Z" fill="#FFBDA8"/>
<path d="M164.618 427.462C171.412 438.596 192.867 446.965 201.979 438.85C201.979 438.85 203.447 437.861 203.77 435.463C203.77 435.463 206.506 434.565 206.884 431.367C206.918 431.106 209.687 428.693 209.289 426.111C209.289 426.111 211.167 423.405 209.319 421.762C207.471 420.119 196.123 422.823 192.124 421.605C185.419 419.562 185.196 416.927 185.719 416.446C186.24 415.963 195.029 419.727 196.391 416.69C197.753 413.652 189.023 409.801 184.992 409.18C176.884 407.927 169.796 411.733 169.796 411.733L164.618 427.462Z" fill="#FEAE93"/>
<path d="M88.6324 287.12C74.3702 290.977 71.0442 367.083 75.7926 380.117C81.9958 397.151 164.161 431.754 164.161 431.754C164.161 431.754 171.831 420.924 176.231 404.681L106.859 368.473L97.8346 308.012L88.6324 287.12Z" fill="white"/>
<path d="M146.488 297.036C146.25 296.368 147.312 296.081 147.548 296.744C150.604 305.337 153.682 313.99 155.251 323.002C156.651 331.038 156.795 339.375 154.711 347.31C153.574 351.642 151.755 355.794 149.203 359.481C148.804 360.059 147.852 359.51 148.254 358.927C152.776 352.392 154.843 344.518 155.158 336.64C155.502 328.039 153.749 319.536 151.298 311.333C149.857 306.514 148.173 301.773 146.488 297.036Z" fill="#CFFDF8"/>
<path d="M103.01 366.23C103.56 366.506 104.11 366.782 104.66 367.06C104.175 355.406 103.689 343.753 103.205 332.098C103.064 328.727 102.924 325.356 102.785 321.986C102.756 321.279 103.854 321.279 103.884 321.986C104.38 333.92 104.877 345.853 105.374 357.787C105.51 361.065 105.647 364.345 105.784 367.623C106.98 368.225 108.177 368.826 109.372 369.428C110.005 369.746 109.448 370.694 108.819 370.377C106.697 369.311 104.578 368.245 102.458 367.179C101.824 366.862 102.381 365.914 103.01 366.23Z" fill="#CFFDF8"/>
<path d="M150.235 243.953C150.215 244.112 150.209 244.254 150.189 244.413C149.36 252.193 146.579 257.128 142.685 260.809C139.947 263.428 137.457 265.136 135.407 266.776C135.01 267.083 134.642 267.404 134.274 267.723C130.472 270.972 128.326 274.516 128.886 284.69C125.905 293.545 112.74 295.482 107.928 285.842C107.395 273.541 104.477 263.055 102.037 256.324C101.426 254.559 100.83 253.066 100.321 251.866C99.3541 249.579 98.6845 248.316 98.6845 248.316C98.6845 248.316 97.7666 221.251 101.256 213.866C109.778 196.016 143.37 200.104 146.719 213.763C149.991 227.056 150.923 236.723 150.235 243.953Z" fill="#FEAE93"/>
<path d="M150.855 226.286C143.057 223.65 136.496 217.558 133.289 209.975C132.03 215.733 129.128 221.144 124.719 225.057C120.31 228.969 114.642 231.439 108.777 232.003C108.104 237.542 103.711 242.526 98.2773 243.788C95.7951 235.456 94.203 226.646 96.5957 218.286C98.9869 209.926 105.098 202.353 113.373 199.686C118.197 198.131 123.402 198.288 128.443 198.836C133.017 199.331 137.733 200.204 141.482 202.874C145.093 205.448 147.457 209.48 148.807 213.704C150.156 217.928 150.433 221.873 150.855 226.286Z" fill="black"/>
<path d="M138.448 230.363C141.016 228.421 144.45 228.39 147.025 230.444C147.508 230.829 147.621 231.636 147.287 232.175C146.946 232.724 146.263 232.841 145.78 232.455C144.723 231.613 143.407 231.266 142.141 231.409C141.501 231.482 140.871 231.679 140.293 231.996C139.781 232.276 139.29 232.748 138.69 232.435C138.546 232.36 138.421 232.246 138.321 232.108C137.974 231.638 137.96 230.732 138.448 230.363Z" fill="black"/>
<path d="M130.253 230.689C127.152 228.972 123.223 229.233 120.455 231.497C119.937 231.922 119.877 232.736 120.302 233.244C120.737 233.764 121.529 233.822 122.049 233.396C123.184 232.468 124.662 232.026 126.12 232.065C126.857 232.085 127.592 232.225 128.283 232.485C128.894 232.713 129.5 233.136 130.154 232.775C130.311 232.688 130.444 232.563 130.547 232.418C130.902 231.918 130.841 231.014 130.253 230.689Z" fill="black"/>
<path d="M125.589 241.132C126.793 241.132 127.769 240.156 127.769 238.952C127.769 237.748 126.793 236.772 125.589 236.772C124.385 236.772 123.409 237.748 123.409 238.952C123.409 240.156 124.385 241.132 125.589 241.132Z" fill="black"/>
<path d="M126.359 239.119C126.8 239.119 127.157 238.762 127.157 238.321C127.157 237.881 126.8 237.524 126.359 237.524C125.919 237.524 125.562 237.881 125.562 238.321C125.562 238.762 125.919 239.119 126.359 239.119Z" fill="white"/>
<path d="M142.433 240.397C143.636 240.397 144.612 239.421 144.612 238.218C144.612 237.014 143.636 236.038 142.433 236.038C141.229 236.038 140.253 237.014 140.253 238.218C140.253 239.421 141.229 240.397 142.433 240.397Z" fill="black"/>
<path d="M143.204 238.387C143.645 238.387 144.003 238.029 144.003 237.588C144.003 237.147 143.645 236.789 143.204 236.789C142.763 236.789 142.405 237.147 142.405 237.588C142.405 238.029 142.763 238.387 143.204 238.387Z" fill="white"/>
<path d="M129.775 248.737C130.383 247.654 132.228 248.632 134.358 248.665C136.489 248.697 138.363 247.778 138.937 248.878C139.662 250.269 137.772 253.674 134.283 253.621C130.793 253.569 129.007 250.107 129.775 248.737Z" fill="#8E4136"/>
<path d="M130.037 251.025C130.705 250.951 131.418 250.908 132.169 250.918C134.646 250.957 136.761 251.498 137.741 252.245C136.914 253.041 135.749 253.644 134.281 253.621C132.184 253.589 130.719 252.325 130.037 251.025Z" fill="#C16B5B"/>
<path d="M134.339 249.862C132.439 249.832 130.83 249.357 130.256 248.321C131.103 247.995 132.638 248.638 134.359 248.665C136.081 248.691 137.635 248.095 138.471 248.447C137.863 249.465 136.24 249.891 134.339 249.862Z" fill="white"/>
<path d="M137.806 244.336C137.929 244.331 138.039 244.245 138.07 244.118C138.528 242.238 137.869 241.634 137.235 241.458C136.592 241.284 135.841 241.48 135.001 242.049C134.872 242.137 134.838 242.315 134.926 242.446C135.017 242.574 135.194 242.606 135.322 242.521C136.015 242.051 136.609 241.877 137.084 242.008C137.652 242.163 137.797 242.828 137.516 243.982C137.479 244.135 137.573 244.288 137.726 244.326C137.752 244.336 137.78 244.337 137.806 244.336Z" fill="#C16B5B"/>
<path d="M135.965 241.229C131.314 241.11 123.084 246.636 116.679 246.924C116.679 246.924 117.567 254.974 115.93 261.379C115.93 261.379 127.021 266.242 136.397 266.242C146.357 262.345 149.057 254.607 150.308 245.439C146.837 244.97 141.459 241.369 135.965 241.229Z" fill="#65C0BA"/>
<path d="M118.261 246.628C113.027 244.774 107.793 242.921 102.558 241.068C101.222 240.596 100.648 242.717 101.975 243.188C107.209 245.042 112.444 246.895 117.678 248.748C119.013 249.22 119.588 247.097 118.261 246.628Z" fill="#65C0BA"/>
<path d="M117.276 259.795C111.958 255.352 106.642 250.907 101.326 246.463C100.247 245.562 98.6846 247.108 99.7722 248.016L115.722 261.348C116.8 262.251 118.363 260.703 117.276 259.795Z" fill="#65C0BA"/>
<path d="M90.58 239.084C88.0045 241.497 88.3807 246.083 91.4203 249.327C94.4599 252.572 99.0117 253.246 101.587 250.833C104.163 248.421 103.786 243.834 100.747 240.59C97.7073 237.345 93.1554 236.671 90.58 239.084Z" fill="#FEAE93"/>
<path d="M92.5459 240.659C93.7229 239.951 95.3428 239.891 96.8731 240.505C97.6367 240.809 98.1998 241.201 98.5978 241.699C99.1239 242.361 99.3059 243.217 99.0745 243.935C98.8694 244.578 98.388 245.016 97.9638 245.402C97.6568 245.681 97.3668 245.945 97.211 246.249C96.9718 246.716 97.0737 247.347 97.447 247.717C97.8203 248.084 98.4513 248.175 98.9172 247.93C99.1902 247.785 99.5281 247.89 99.6731 248.162C99.8166 248.433 99.7132 248.772 99.4417 248.916C99.1439 249.075 98.8154 249.16 98.4821 249.178C97.8203 249.214 97.1415 248.982 96.6633 248.51C95.946 247.802 95.7577 246.637 96.2175 245.74C96.4658 245.255 96.8623 244.894 97.214 244.576C97.5658 244.257 97.8959 243.955 98.0132 243.594C98.1289 243.233 98.0162 242.762 97.7231 242.395C97.6059 242.247 97.4485 242.116 97.2773 241.991C96.7235 242.017 96.0401 242.225 95.7099 242.626C95.3397 243.08 95.1885 243.716 95.3134 244.286C95.3798 244.587 95.19 244.885 94.8892 244.951C94.8583 244.959 94.829 244.962 94.7982 244.964C94.5313 244.979 94.2845 244.799 94.2243 244.527C94.0207 243.618 94.2536 242.643 94.8445 241.92C95.0651 241.651 95.3489 241.462 95.6482 241.304C94.7133 241.107 93.8062 241.206 93.1197 241.617C92.2728 242.127 91.6789 243.351 92.1818 244.296C92.3253 244.569 92.2219 244.907 91.9504 245.052C91.6773 245.195 91.341 245.092 91.196 244.82C90.4663 243.442 91.0834 241.537 92.5459 240.659Z" fill="#A85D4F"/>
<path d="M281.549 768.26H288.617V603.103C288.617 596.321 294.305 590.804 301.297 590.804H372.279C379.272 590.804 384.962 596.321 384.962 603.103V768.26H392.03V603.103C392.03 592.423 383.171 583.736 372.279 583.736H301.297C290.407 583.736 281.549 592.423 281.549 603.103V768.26Z" fill="#217C83"/>
<path d="M392.03 706.527H265.725V711.038H392.03V706.527Z" fill="#217C83"/>
<path d="M265.983 768.26H273.052V603.103C273.052 596.321 278.741 590.804 285.734 590.804H356.716C363.706 590.804 369.396 596.321 369.396 603.103V768.26H376.464V603.103C376.464 592.423 367.606 583.736 356.716 583.736H285.734C274.843 583.736 265.983 592.423 265.983 603.103V768.26Z" fill="#65C0BA"/>
<path d="M269.327 549.403H383.605C390.978 549.403 396.954 555.379 396.954 562.75V571.815C396.954 579.186 390.978 585.162 383.605 585.162H269.327C261.955 585.162 255.98 579.186 255.98 571.815V562.75C255.98 555.379 261.955 549.403 269.327 549.403Z" fill="#65C0BA"/>
<path d="M215.179 763.406L215.105 763.898C215.032 764.63 214.944 765.332 214.812 766.093C214.664 766.721 214.545 767.409 214.412 768.111L139.075 768.254C139.075 768.254 138.953 767.478 138.951 766.253C138.981 765.627 139.024 764.894 139.157 764.043C139.186 763.893 139.201 763.714 139.26 763.551C140.073 759.307 143.152 753.447 153.437 751.547C153.929 751.427 154.452 751.366 155.02 751.291L155.065 751.289C155.87 751.169 156.677 751.093 157.542 751.016C157.826 751.001 158.11 750.97 158.394 750.954C178.998 749.304 188.109 742.372 188.109 742.372C188.109 742.372 200.06 744.737 211.254 742.328C211.254 742.328 212.572 744.506 213.744 748.296C213.925 748.938 214.121 749.625 214.301 750.356C214.346 750.49 214.377 750.64 214.421 750.805C214.497 751.089 214.557 751.416 214.617 751.744C214.633 751.834 214.662 751.953 214.662 752.042C214.662 752.116 214.707 752.145 214.707 752.206C215.008 753.758 215.236 755.459 215.329 757.296C215.424 759.208 215.413 761.253 215.179 763.406Z" fill="#A13636"/>
<path d="M180.632 742.997C180.888 742.761 181.224 742.584 181.584 742.601C181.963 742.618 182.241 742.76 182.537 742.993C182.744 743.156 182.954 743.318 183.162 743.48C184.157 744.244 185.167 744.986 186.198 745.702C186.491 745.907 186.719 746.152 186.818 746.505C186.907 746.828 186.869 747.257 186.685 747.544C186.318 748.117 185.464 748.461 184.845 748.031C183.41 747.031 182.011 745.984 180.638 744.901C180.385 744.7 180.243 744.255 180.242 743.949C180.238 743.619 180.385 743.224 180.632 742.997Z" fill="white"/>
<path d="M175.303 745.406C175.806 744.941 176.717 744.832 177.207 745.401C178.196 746.546 179.297 747.586 180.492 748.514C180.683 748.659 180.874 748.803 181.07 748.939C181.362 749.145 181.591 749.387 181.69 749.742C181.78 750.063 181.741 750.492 181.558 750.779C181.192 751.35 180.333 751.7 179.717 751.266C178.096 750.125 176.605 748.811 175.31 747.309C175.072 747.033 174.913 746.729 174.913 746.358C174.91 746.027 175.057 745.634 175.303 745.406Z" fill="white"/>
<path d="M170.404 747.155C170.66 746.919 170.996 746.743 171.355 746.759C171.686 746.773 172.094 746.877 172.309 747.151L175.369 751.072C175.599 751.367 175.764 751.632 175.766 752.024C175.766 752.354 175.621 752.749 175.374 752.976C175.118 753.212 174.782 753.388 174.422 753.372C174.092 753.358 173.683 753.253 173.469 752.98L170.408 749.059C170.178 748.764 170.012 748.499 170.012 748.107C170.012 747.777 170.157 747.382 170.404 747.155Z" fill="white"/>
<path d="M164.969 748.433C165.614 748.091 166.431 748.264 166.812 748.913C167.494 750.076 168.178 751.239 168.861 752.403C169.217 753.012 169.025 753.905 168.381 754.246C167.736 754.589 166.919 754.414 166.538 753.765C165.856 752.603 165.173 751.44 164.489 750.275C164.133 749.669 164.327 748.776 164.969 748.433Z" fill="white"/>
<path d="M215.116 763.906C215.029 764.618 214.944 765.344 214.801 766.083C214.671 766.736 214.557 767.416 214.398 768.113L139.078 768.257C139.078 768.257 138.945 767.489 138.944 766.256C138.971 765.617 139.013 764.877 139.158 764.05L215.116 763.906Z" fill="white"/>
<path d="M305.535 717.688L305.78 718.123C306.172 718.745 306.533 719.354 306.895 720.036C307.165 720.623 307.494 721.237 307.819 721.872L248.453 768.255C248.453 768.255 247.883 767.716 247.128 766.752C246.766 766.238 246.351 765.634 245.933 764.881C245.865 764.745 245.766 764.594 245.712 764.429C243.748 760.581 242.58 754.065 249.529 746.248C249.843 745.85 250.218 745.481 250.621 745.073L250.655 745.045C251.216 744.454 251.806 743.899 252.443 743.306C252.657 743.12 252.861 742.922 253.077 742.735C268.323 728.777 271.254 717.71 271.254 717.71C271.254 717.71 282.141 712.238 289.494 703.46C289.494 703.46 291.872 704.369 295.124 706.641C295.661 707.038 296.237 707.459 296.828 707.925C296.946 708.003 297.061 708.102 297.198 708.205C297.431 708.383 297.681 708.605 297.931 708.827C297.997 708.889 298.094 708.964 298.15 709.035C298.196 709.094 298.248 709.089 298.287 709.136C299.478 710.177 300.703 711.38 301.905 712.772C303.151 714.226 304.399 715.848 305.535 717.688Z" fill="#A13636"/>
<path d="M265.738 722.801C265.793 722.457 265.952 722.113 266.244 721.905C266.554 721.684 266.859 721.625 267.237 721.628C267.503 721.63 267.767 721.63 268.03 721.63C269.285 721.621 270.539 721.587 271.791 721.52C272.148 721.5 272.481 721.553 272.776 721.773C273.044 721.972 273.277 722.335 273.308 722.674C273.37 723.352 272.905 724.149 272.154 724.188C270.408 724.282 268.66 724.314 266.913 724.3C266.591 724.297 266.204 724.034 266.016 723.793C265.809 723.534 265.682 723.133 265.738 722.801Z" fill="white"/>
<path d="M263.012 727.973C263.124 727.297 263.775 726.654 264.513 726.801C265.995 727.097 267.503 727.242 269.016 727.24C269.255 727.236 269.496 727.231 269.733 727.219C270.091 727.202 270.42 727.251 270.717 727.472C270.986 727.672 271.219 728.035 271.25 728.374C271.311 729.048 270.849 729.852 270.096 729.888C268.115 729.983 266.133 729.861 264.187 729.471C263.832 729.4 263.518 729.257 263.289 728.963C263.084 728.707 262.958 728.305 263.012 727.973Z" fill="white"/>
<path d="M260.22 732.364C260.277 732.02 260.435 731.676 260.727 731.468C260.997 731.275 261.383 731.107 261.721 731.192L266.545 732.406C266.907 732.497 267.202 732.605 267.442 732.912C267.646 733.172 267.773 733.573 267.719 733.907C267.661 734.251 267.503 734.595 267.211 734.803C266.941 734.994 266.554 735.162 266.218 735.079L261.392 733.865C261.031 733.772 260.736 733.664 260.496 733.357C260.292 733.097 260.164 732.696 260.22 732.364Z" fill="white"/>
<path d="M256.716 736.711C257.015 736.045 257.767 735.679 258.467 735.958C259.72 736.455 260.972 736.955 262.227 737.453C262.881 737.714 263.279 738.539 262.979 739.203C262.682 739.869 261.929 740.235 261.23 739.956C259.976 739.459 258.725 738.959 257.47 738.461C256.815 738.2 256.418 737.375 256.716 736.711Z" fill="white"/>
<path d="M305.794 718.124C306.163 718.737 306.539 719.363 306.881 720.034C307.179 720.63 307.508 721.238 307.812 721.884L248.458 768.257C248.458 768.257 247.883 767.733 247.124 766.761C246.754 766.239 246.332 765.63 245.938 764.89L305.794 718.124Z" fill="white"/>
<path d="M177.88 572.828C176.713 589.21 230.154 662.938 256.697 698.46C265.427 710.16 271.259 717.722 271.259 717.722C271.259 717.722 285.751 715.745 289.496 703.462C289.496 703.462 286.138 695.915 281.013 684.605C266.876 653.449 239.254 593.787 231.23 584.951C231.23 584.951 352.267 576.54 356.579 494.168L280.695 492.613C246.199 507.494 179.646 547.857 177.88 572.828Z" fill="#FFBDA8"/>
<path d="M175.777 572.304C172.843 595.04 224.697 665.3 251.241 700.822C262.897 697.664 278.261 687.779 285.382 681.645C271.245 650.49 242.08 594.633 234.055 585.794C234.055 585.794 352.267 576.54 356.579 494.168L280.695 492.613C246.199 507.494 179.651 542.298 175.777 572.304Z" fill="#164A4F"/>
<path d="M186.062 719.048V719.066C187.141 733.061 187.9 742.128 187.9 742.128C197.213 747.236 211.245 742.322 211.245 742.322C211.245 742.322 212.341 733.168 213.967 719.242C218.473 680.399 226.938 604.355 226.461 585.515C226.461 585.515 293.175 578.164 338.414 564.539C379.379 552.223 385.528 519.493 383.707 493.656L304.695 495.123C304.695 495.123 192.176 542.979 181.749 567.949C176.342 580.904 182.704 674.726 186.062 719.048Z" fill="#FFBDA8"/>
<path d="M180.243 719.681C180.243 719.681 185.024 720.419 192.021 720.814C192.384 720.835 192.746 720.857 193.12 720.868C193.834 720.911 194.57 720.945 195.317 720.967C195.679 720.977 196.042 720.988 196.404 721.01C203.393 721.207 211.766 720.967 219.654 719.504C224.16 680.662 228.478 605.462 228.005 586.631C228.005 586.631 293.173 578.16 338.409 564.535C379.37 552.218 385.523 519.485 383.71 493.654L304.686 495.126C304.686 495.126 192.173 542.977 181.746 567.952C176.343 580.909 176.881 675.371 180.243 719.681Z" fill="#217C83"/>
<path d="M195.318 720.968C195.681 720.979 196.043 720.99 196.406 721.012C196.45 719.978 196.483 718.934 196.528 717.902C197.231 699.058 197.945 680.203 198.649 661.36C199.352 642.581 200.067 623.793 200.77 605.015C200.946 600.247 201.122 595.489 201.308 590.731C201.452 586.853 201.538 582.93 202.495 579.161C203.473 575.294 205.484 571.954 208.814 569.691C212.197 567.383 216.197 566.096 219.977 564.624C237.512 557.801 255.059 550.967 272.596 544.144C290.197 537.288 307.799 530.431 325.413 523.575C325.467 523.553 325.521 523.532 325.577 523.51C326.225 523.246 325.939 522.191 325.281 522.444C324.974 522.564 324.676 522.686 324.369 522.797C322.488 523.533 320.589 524.269 318.71 525.007C300.855 531.961 283.011 538.906 265.156 545.861C256.267 549.322 247.367 552.793 238.478 556.255C233.973 558.014 229.456 559.759 224.952 561.517C220.865 563.111 216.711 564.594 212.689 566.365C209.306 567.847 206.108 569.814 203.999 572.935C201.933 575.979 201.086 579.638 200.657 583.242C200.185 587.385 200.175 591.592 200.009 595.756C199.834 600.591 199.647 605.415 199.471 610.249C198.757 629.303 198.042 648.354 197.328 667.397L195.318 720.968Z" fill="#65C0BA"/>
<path d="M192.023 720.816C192.385 720.837 192.748 720.859 193.121 720.87C193.186 719.068 193.252 717.277 193.319 715.475C194.022 696.631 194.735 677.776 195.44 658.934C196.143 640.144 196.858 621.366 197.561 602.59C197.737 597.82 197.913 593.063 198.1 588.294C198.242 584.427 198.329 580.503 199.286 576.724C200.264 572.867 202.276 569.516 205.603 567.252C208.988 564.956 212.987 563.671 216.779 562.198C234.314 555.364 251.85 548.54 269.387 541.706C287.043 534.829 304.712 527.95 322.37 521.071C322.447 521.039 322.502 521.007 322.556 520.951C322.953 520.59 322.655 519.786 322.073 520.018C322.009 520.041 321.953 520.062 321.887 520.095C319.767 520.908 317.624 521.742 315.503 522.579C297.648 529.533 279.804 536.478 261.949 543.433C253.06 546.894 244.16 550.355 235.271 553.816C230.766 555.575 226.249 557.331 221.744 559.089C217.658 560.683 213.503 562.166 209.483 563.924C206.098 565.419 202.9 567.386 200.792 570.496C198.726 573.54 197.879 577.21 197.462 580.814C196.98 584.957 196.967 589.164 196.802 593.328C196.626 598.163 196.44 602.987 196.264 607.821C195.55 626.864 194.835 645.915 194.121 664.969L192.023 720.816Z" fill="#65C0BA"/>
<path d="M318.776 507.145C319.56 512.031 320.495 517.347 324.074 521.05C327.415 524.508 332.389 525.26 336.98 525.389C337.685 525.411 337.688 526.509 336.98 526.489C333.225 526.381 329.298 525.903 326.005 523.957C322.618 521.957 320.515 518.507 319.321 514.842C318.537 512.434 318.118 509.93 317.718 507.437C317.607 506.746 318.665 506.448 318.776 507.145Z" fill="#65C0BA"/>
<path d="M304.874 340.621L312.154 392.198L296.688 409.343L284.029 359.409C284.029 359.411 289.919 345.665 304.874 340.621Z" fill="#F76262"/>
<path d="M296.05 410.352L279.126 365.514C279.126 365.514 280.697 359.203 286.436 354.647L298.732 409.345L295.602 410.701" fill="#A13636"/>
<path d="M280.697 492.6C306.489 505.217 381.64 497.697 383.702 493.654L367.621 339.997L346.249 334.161L325.697 334.046L304.877 340.621L280.697 492.6Z" fill="#F76262"/>
<path d="M367.62 339.997C384.045 343.919 395.175 427.468 387.957 440.885C379.4 456.791 293.43 487.929 293.43 487.929L285.535 473.716L360.659 427.017L352.589 366.18L367.62 339.997Z" fill="#FFBDA8"/>
<path d="M290.28 471.53C285.135 471.931 272.45 461.049 270.961 461.895C269.471 462.74 269.624 467.229 271.922 469.204C271.922 469.204 255.884 471.78 256.56 474.14C257.237 476.501 263.635 475.518 266.634 474.566C266.634 474.566 256.642 479.271 257.173 481.584C257.702 483.896 267.65 479.205 267.65 479.205C267.65 479.205 259.254 483.991 260.397 486.263C261.541 488.534 270.216 482.369 270.216 482.369C270.216 482.369 265.576 486.973 266.743 488.7C267.913 490.427 275.534 482.861 275.534 482.861C275.534 482.861 285.236 496.702 294.669 486.828L290.28 471.53Z" fill="#FFBDA8"/>
<path d="M367.62 339.997C387.655 345.122 394.576 417.616 394.576 417.616C394.576 417.616 377.729 420.774 350.206 420.774L348.702 366.33L367.62 339.997Z" fill="#F76262"/>
<path d="M344.953 377.187C345.144 376.991 345.544 376.957 345.731 377.187C347.31 379.129 348.892 381.073 350.47 383.016C350.34 382.314 350.209 381.613 350.08 380.911C349.529 377.945 348.978 374.98 348.427 372.013C348.299 371.322 349.359 371.026 349.487 371.721C350.297 376.084 351.108 380.445 351.917 384.808C352.028 384.967 352.071 385.155 352.014 385.328C353.125 391.307 354.234 397.289 355.345 403.27C355.895 406.235 356.446 409.201 356.997 412.168C357.125 412.859 356.067 413.155 355.937 412.459C354.252 403.394 352.569 394.328 350.886 385.262C348.909 382.829 346.931 380.398 344.952 377.965C344.765 377.733 344.731 377.414 344.953 377.187Z" fill="#FCA1A1"/>
<path d="M296.068 389.755C298.393 380.953 300.132 371.996 301.236 362.957C301.552 360.367 301.816 357.772 302.032 355.173C302.091 354.473 303.191 354.466 303.132 355.173C302.369 364.344 300.988 373.462 298.985 382.445C298.416 384.99 297.796 387.525 297.131 390.049C296.949 390.732 295.888 390.442 296.068 389.755Z" fill="#FCA1A1"/>
<path d="M296.878 260.844C297.474 256.285 299.538 251.884 302.876 248.724C306.883 244.934 312.453 243.132 317.956 242.78C323.457 242.429 328.954 243.415 334.344 244.57C339.088 245.587 343.844 246.754 348.224 248.842C352.604 250.929 356.624 254.014 359.118 258.177C360.684 260.788 361.509 263.903 361.443 266.964C361.608 266.922 361.769 266.862 361.937 266.842C362.778 266.74 363.674 266.924 364.331 267.457C364.988 267.991 365.355 268.904 365.133 269.72C364.891 270.614 364.038 271.211 363.171 271.533C363.76 271.314 364.476 271.595 364.814 272.124C365.153 272.655 365.124 273.378 364.8 273.917C364.505 274.407 363.989 274.734 363.43 274.87C364.59 276.584 365.223 278.773 365.44 280.862C365.986 286.161 364.675 291.633 361.783 296.108C358.892 300.582 354.439 304.027 349.384 305.705C335.315 310.373 319.433 305.605 305.041 302.049C297.9 295.065 295.331 283.608 298.964 274.304C297.116 270.097 296.285 265.402 296.878 260.844Z" fill="black"/>
<path d="M352.588 300.783C352.588 300.783 345.563 316.682 346.038 337.533C341.998 347.123 329.195 346.119 325.776 337.742C325.691 329.81 324.183 326.137 321.569 323.489C321.355 323.266 321.145 323.07 320.918 322.862C320.762 322.713 320.608 322.579 320.438 322.445C320.13 322.177 319.783 321.936 319.446 321.669C317.136 319.94 314.266 318.355 310.943 315.586C307.049 312.368 304.083 307.857 302.751 300.644C302.73 300.54 302.711 300.435 302.69 300.331C302.664 300.147 302.64 299.977 302.613 299.794C302.594 299.717 302.588 299.636 302.571 299.559C301.513 292.645 301.835 283.35 304.115 270.459C306.482 257.087 338.61 251.039 347.952 267.737C351.8 274.629 352.588 300.783 352.588 300.783Z" fill="#FFBDA8"/>
<path d="M310.851 270.375C319.809 272.312 329.332 271.545 337.865 268.198C337.91 269.71 338.797 271.171 340.117 271.909C341.438 272.648 343.147 272.639 344.458 271.885C342.854 276.268 342.913 281.238 344.622 285.581C346.331 289.925 349.676 293.601 353.839 295.715C356.717 287.838 356.181 278.778 352.394 271.294C348.607 263.81 341.627 258.011 333.578 255.66C325.526 253.311 316.522 254.443 309.307 258.716C307.154 259.989 302.852 262.917 302.895 265.83C302.914 267.177 304.644 268.039 305.666 268.596C307.275 269.478 309.067 269.989 310.851 270.375Z" fill="black"/>
<path d="M326.512 295.852C327.651 295.852 328.575 294.929 328.575 293.79C328.575 292.65 327.651 291.727 326.512 291.727C325.373 291.727 324.45 292.65 324.45 293.79C324.45 294.929 325.373 295.852 326.512 295.852Z" fill="black"/>
<path d="M325.751 293.989C326.168 293.989 326.506 293.651 326.506 293.234C326.506 292.818 326.168 292.48 325.751 292.48C325.335 292.48 324.997 292.818 324.997 293.234C324.997 293.651 325.335 293.989 325.751 293.989Z" fill="white"/>
<path d="M310.556 296.012C311.695 296.012 312.619 295.088 312.619 293.949C312.619 292.81 311.695 291.887 310.556 291.887C309.417 291.887 308.493 292.81 308.493 293.949C308.493 295.088 309.417 296.012 310.556 296.012Z" fill="black"/>
<path d="M309.794 294.149C310.211 294.149 310.55 293.811 310.55 293.393C310.55 292.976 310.211 292.637 309.794 292.637C309.377 292.637 309.038 292.976 309.038 293.393C309.038 293.811 309.377 294.149 309.794 294.149Z" fill="white"/>
<path d="M323.052 303.25C322.424 302.258 320.729 303.275 318.717 303.412C316.705 303.551 314.888 302.777 314.4 303.846C313.786 305.199 315.744 308.32 319.039 308.093C322.335 307.866 323.846 304.505 323.052 303.25Z" fill="#8E4136"/>
<path d="M322.919 305.424C322.285 305.387 321.608 305.383 320.898 305.432C318.558 305.594 316.588 306.213 315.699 306.969C316.522 307.678 317.653 308.19 319.039 308.093C321.019 307.957 322.341 306.688 322.919 305.424Z" fill="#C16B5B"/>
<path d="M318.796 304.544C320.59 304.419 322.086 303.89 322.577 302.881C321.761 302.615 320.341 303.3 318.717 303.413C317.091 303.525 315.593 303.041 314.82 303.416C315.445 304.348 317 304.669 318.796 304.544Z" fill="white"/>
<path d="M315.238 299.498C315.121 299.499 315.013 299.423 314.977 299.305C314.448 297.551 315.041 296.947 315.632 296.75C316.229 296.552 316.949 296.701 317.773 297.196C317.899 297.273 317.939 297.438 317.864 297.566C317.785 297.693 317.619 297.731 317.494 297.657C316.816 297.247 316.246 297.112 315.803 297.262C315.274 297.438 315.17 298.074 315.496 299.15C315.537 299.292 315.457 299.442 315.315 299.485C315.289 299.494 315.263 299.498 315.238 299.498Z" fill="#854237"/>
<path d="M306.83 285.82C309.313 284.493 312.318 284.381 314.835 285.701C315.451 286.024 315.79 286.846 315.439 287.486C315.096 288.106 314.314 288.435 313.654 288.088C313.401 287.955 313.142 287.844 312.878 287.734C312.85 287.725 312.856 287.727 312.841 287.721C312.794 287.707 312.747 287.69 312.699 287.677C312.597 287.647 312.494 287.619 312.39 287.594C312.114 287.526 311.833 287.475 311.551 287.441C311.48 287.432 311.023 287.352 311.377 287.42C311.259 287.397 311.122 287.412 311.003 287.412C310.735 287.414 310.468 287.429 310.203 287.46C310.061 287.475 309.92 287.5 309.782 287.522C309.765 287.523 309.76 287.523 309.749 287.525C309.729 287.529 309.701 287.537 309.66 287.548C309.401 287.611 309.146 287.69 308.896 287.782C308.762 287.832 308.631 287.886 308.501 287.943C308.449 287.966 308.398 287.991 308.345 288.014C308.336 288.018 308.341 288.017 308.328 288.023C308.325 288.024 308.321 288.024 308.318 288.026C308.313 288.028 308.31 288.029 308.305 288.032C308.31 288.029 308.308 288.031 308.313 288.028C307.702 288.347 306.881 288.321 306.479 287.671C306.133 287.111 306.175 286.17 306.83 285.82Z" fill="black"/>
<path d="M322.373 284.748C324.855 283.421 327.86 283.308 330.378 284.629C330.995 284.951 331.333 285.774 330.981 286.414C330.639 287.032 329.857 287.361 329.198 287.015C328.943 286.883 328.684 286.772 328.42 286.662C328.394 286.653 328.399 286.654 328.383 286.648C328.337 286.633 328.289 286.617 328.241 286.605C328.14 286.574 328.036 286.546 327.933 286.522C327.657 286.454 327.377 286.403 327.094 286.369C327.023 286.361 326.566 286.281 326.919 286.347C326.802 286.326 326.665 286.34 326.546 286.34C326.278 286.34 326.011 286.357 325.745 286.386C325.603 286.403 325.463 286.426 325.324 286.448C325.309 286.449 325.303 286.451 325.292 286.452C325.272 286.457 325.245 286.465 325.202 286.475C324.943 286.539 324.689 286.616 324.439 286.708C324.304 286.758 324.173 286.812 324.044 286.869C323.991 286.892 323.94 286.917 323.889 286.94C323.879 286.944 323.883 286.941 323.872 286.948C323.868 286.949 323.863 286.949 323.86 286.952C323.855 286.954 323.852 286.955 323.848 286.957C323.854 286.955 323.851 286.955 323.857 286.954C323.246 287.273 322.424 287.247 322.021 286.597C321.677 286.039 321.717 285.098 322.373 284.748Z" fill="black"/>
<path d="M316.338 295.286C320.988 295.167 329.218 300.693 335.623 300.982C335.623 300.982 334.736 309.031 336.372 315.437C336.372 315.437 326.016 320.299 316.641 320.299C306.264 316.839 303.245 308.664 301.996 299.496C305.467 299.027 310.845 295.426 316.338 295.286Z" fill="#65C0BA"/>
<path d="M334.042 300.685C339.277 298.831 344.511 296.978 349.745 295.126C351.081 294.653 351.655 296.775 350.33 297.245C345.096 299.098 339.861 300.952 334.627 302.805C333.289 303.277 332.715 301.154 334.042 300.685Z" fill="#65C0BA"/>
<path d="M335.027 313.852C340.343 309.409 345.66 304.965 350.976 300.52C352.055 299.619 353.617 301.165 352.531 302.074L336.58 315.406C335.503 316.308 333.94 314.761 335.027 313.852Z" fill="#65C0BA"/>
<path d="M349.956 303.404C352.59 305.568 356.937 304.632 359.664 301.313C362.391 297.993 362.466 293.548 359.831 291.383C357.196 289.219 352.85 290.155 350.123 293.474C347.396 296.794 347.321 301.239 349.956 303.404Z" fill="#FFBDA8"/>
<path d="M358.031 293.009C356.851 292.399 355.286 292.444 353.847 293.132C353.13 293.473 352.611 293.887 352.26 294.391C351.795 295.062 351.672 295.9 351.94 296.577C352.179 297.185 352.672 297.575 353.103 297.922C353.417 298.172 353.714 298.407 353.883 298.692C354.142 299.129 354.085 299.743 353.747 300.122C353.409 300.5 352.807 300.628 352.343 300.42C352.07 300.297 351.752 300.42 351.629 300.69C351.508 300.961 351.629 301.281 351.9 301.403C352.198 301.537 352.519 301.599 352.841 301.595C353.481 301.589 354.12 301.322 354.552 300.838C355.2 300.11 355.306 298.974 354.808 298.138C354.538 297.688 354.132 297.364 353.775 297.078C353.417 296.792 353.077 296.522 352.943 296.181C352.809 295.84 352.888 295.38 353.147 295.007C353.25 294.857 353.394 294.721 353.552 294.59C354.088 294.579 354.759 294.738 355.103 295.104C355.488 295.519 355.674 296.12 355.587 296.679C355.542 296.974 355.745 297.248 356.039 297.294C356.069 297.299 356.098 297.301 356.127 297.301C356.386 297.299 356.613 297.108 356.655 296.844C356.794 295.954 356.507 295.03 355.893 294.37C355.663 294.124 355.377 293.959 355.08 293.826C355.97 293.577 356.849 293.615 357.537 293.97C358.386 294.407 359.035 295.551 358.609 296.494C358.489 296.765 358.609 297.085 358.881 297.207C359.152 297.328 359.472 297.208 359.595 296.935C360.209 295.564 359.493 293.765 358.031 293.009Z" fill="#854237"/>
<g style="mix-blend-mode:color-dodge" opacity="0.6">
<path d="M449.583 52.7407C449.54 56.8726 448.494 61.051 446.338 64.911C439.458 77.2294 423.896 81.638 411.578 74.7578C399.261 67.8785 394.852 52.3156 401.732 39.9972C403.888 36.1371 408.455 32.2295 411.95 30.0257L430.45 39.0257L449.45 50.0257L449.583 52.7407Z" fill="#4095D1"/>
<path d="M413.341 84.6593C414.153 83.2041 413.634 81.3686 412.178 80.5552L406.326 77.2868C404.873 76.4751 403.034 76.9938 402.221 78.4487C401.408 79.904 401.931 81.7431 403.384 82.5547L409.236 85.8232C410.692 86.6366 412.528 86.1146 413.341 84.6593Z" fill="#4095D1"/>
<path d="M409.963 72.1512L414.645 74.7661L410.885 81.4967L406.203 78.8818L409.963 72.1512Z" fill="#4095D1"/>
<path d="M392.017 42.419C393.473 43.2319 395.308 42.713 396.122 41.2568L399.391 35.4042C400.202 33.9509 399.683 32.1135 398.227 31.3005C396.774 30.4888 394.935 31.0093 394.123 32.4624L390.855 38.315C390.041 39.7709 390.564 41.6072 392.017 42.419Z" fill="#4095D1"/>
<path d="M397.795 35.282L404.526 39.0415L401.912 43.7221L395.181 39.9625L397.795 35.282Z" fill="#4095D1"/>
<path d="M455.58 63.3336C454.126 62.5212 452.29 63.041 451.477 64.4959L448.208 70.3485C447.397 71.8018 447.916 73.6399 449.37 74.4521C450.825 75.2648 452.663 74.7432 453.475 73.2899L456.743 67.4375C457.556 65.9823 457.035 64.1462 455.58 63.3336Z" fill="#4095D1"/>
<path d="M445.686 62.031L452.416 65.7898L449.802 70.4704L443.072 66.7115L445.686 62.031Z" fill="#4095D1"/>
<path d="M431.249 85.5925C431.192 83.9274 429.795 82.6246 428.13 82.6839L421.43 82.9177C419.766 82.975 418.462 84.3722 418.521 86.0389C418.579 87.7026 419.977 89.0043 421.639 88.9472L428.341 88.7113C430.005 88.6535 431.308 87.2562 431.249 85.5925Z" fill="#4095D1"/>
<path d="M427.242 76.4533L421.882 76.6407L422.15 84.3467L427.511 84.157L427.242 76.4533Z" fill="#4095D1"/>
<path d="M391.28 60.7096C392.945 60.636 394.232 59.2257 394.157 57.5614L393.858 50.8641C393.785 49.1992 392.375 47.9114 390.71 47.9852C389.046 48.0603 387.755 49.4706 387.831 51.1359L388.132 57.8308C388.207 59.4961 389.616 60.7843 391.28 60.7096Z" fill="#4095D1"/>
<path d="M392.676 56.9577L392.437 51.5991L400.139 51.2558L400.377 56.6143L392.676 56.9577Z" fill="#4095D1"/>
<path d="M405.95 27.5257L405.383 29.1725C403.961 30.0406 402.105 29.5936 401.237 28.171C400.744 27.3655 400.658 26.3534 400.95 25.5257L405.95 27.5257Z" fill="#4095D1"/>
<path d="M411.95 30.0257L409.218 34.1607L405.95 27.5257L411.95 30.0257Z" fill="#4095D1"/>
<path d="M446.362 77.5807C445.492 76.1612 443.637 75.7119 442.215 76.5804L436.496 80.0774C435.074 80.9445 434.626 82.8035 435.495 84.2257C436.363 85.6449 438.22 86.0936 439.64 85.2252L445.361 81.7289C446.783 80.8587 447.231 79.0028 446.362 77.5807Z" fill="#4095D1"/>
<path d="M438.38 71.5921L433.804 74.3879L437.825 80.9664L442.4 78.1689L438.38 71.5921Z" fill="#4095D1"/>
<path d="M399.562 76.1174C400.964 75.2186 401.369 73.3524 400.467 71.9503L396.839 66.3135C395.937 64.9127 394.071 64.5069 392.67 65.409C391.27 66.3097 390.865 68.1779 391.766 69.5782L395.393 75.2153C396.294 76.6171 398.161 77.0217 399.562 76.1174Z" fill="#4095D1"/>
<path d="M405.365 68.0001L402.463 63.4903L395.98 67.6631L398.881 72.1712L405.365 68.0001Z" fill="#4095D1"/>
<path d="M442.01 51.1045C440.74 49.4729 438.593 48.9628 436.837 49.7267C437.044 49.4569 437.276 49.203 437.556 48.9844C439.412 47.5388 442.129 47.9252 443.623 49.8471C445.12 51.7684 444.828 54.4964 442.973 55.941C442.693 56.1605 442.389 56.3213 442.076 56.4585C443.248 54.9436 443.278 52.7358 442.01 51.1045Z" fill="#1380C4"/>
<path d="M411.796 32.1823C412.15 32.1495 412.494 32.1684 412.831 32.2136L415.672 33.8002C416.169 34.419 416.501 35.1719 416.58 36.0109C416.613 36.3639 416.587 36.7084 416.533 37.0437C415.887 35.2421 414.044 34.0274 411.986 34.2189C409.927 34.4126 408.34 35.9453 408.039 37.8387C407.924 37.5154 407.834 37.1849 407.801 36.8292C407.582 34.4892 409.371 32.4058 411.796 32.1823Z" fill="#1380C4"/>
<path d="M417.198 63.4534C415.211 62.8837 413.175 63.7352 412.205 65.3863C412.215 65.0447 412.253 64.7047 412.35 64.3625C413 62.1019 415.424 60.8144 417.763 61.4858C420.103 62.1577 421.474 64.5349 420.824 66.7951C420.727 67.1388 420.578 67.4478 420.405 67.7411C420.46 65.8275 419.185 64.0247 417.198 63.4534Z" fill="#1380C4"/>
<path d="M433.572 65.5787C433.026 63.5856 431.241 62.2885 429.327 62.3177C429.623 62.1491 429.935 62.0044 430.277 61.9102C432.546 61.2888 434.906 62.6911 435.546 65.0384C436.187 67.3881 434.869 69.7958 432.6 70.4146C432.259 70.508 431.916 70.5419 431.576 70.5476C433.239 69.6002 434.115 67.574 433.572 65.5787Z" fill="#1380C4"/>
<path d="M424.549 48.0494C422.761 47.0175 420.578 47.3522 419.241 48.7214C419.333 48.394 419.451 48.0722 419.628 47.7642C420.802 45.725 423.465 45.0583 425.574 46.2755C427.683 47.4923 428.441 50.1283 427.266 52.1656C427.089 52.474 426.869 52.7392 426.631 52.9816C427.145 51.1381 426.341 49.0826 424.549 48.0494Z" fill="#1380C4"/>
<path d="M410.145 47.8288C409.14 46.0229 407.099 45.185 405.247 45.6691C405.493 45.4353 405.762 45.2208 406.073 45.0479C408.129 43.9046 410.755 44.7055 411.935 46.8342C413.116 48.9642 412.408 51.6143 410.352 52.7566C410.041 52.9292 409.716 53.0425 409.389 53.1281C410.777 51.8109 411.147 49.6366 410.145 47.8288Z" fill="#1380C4"/>
</g>
<g style="mix-blend-mode:color-dodge" opacity="0.6">
<path d="M514.569 347.531C514.569 366.088 529.611 381.13 548.166 381.13C566.723 381.13 581.763 366.088 581.763 347.531C581.763 328.974 566.723 313.932 548.166 313.932C529.611 313.932 514.569 328.974 514.569 347.531Z" fill="#4095D1"/>
<path d="M539.79 304.966C539.79 307.157 541.567 308.934 543.758 308.934H552.573C554.764 308.934 556.542 307.158 556.542 304.966C556.542 302.776 554.764 301 552.573 301H543.758C541.567 301 539.79 302.776 539.79 304.966Z" fill="#4095D1"/>
<path d="M544.64 307.025H551.693V317.163H544.64V307.025Z" fill="#4095D1"/>
<path d="M556.542 391.369C556.542 389.177 554.767 387.4 552.573 387.4H543.758C541.568 387.4 539.79 389.177 539.79 391.369C539.79 393.56 541.568 395.337 543.758 395.337H552.573C554.767 395.336 556.542 393.56 556.542 391.369Z" fill="#4095D1"/>
<path d="M544.64 379.171H551.693V389.311H544.64V379.171Z" fill="#4095D1"/>
<path d="M504.968 356.543C507.161 356.543 508.936 354.768 508.936 352.576V343.76C508.936 341.57 507.161 339.793 504.968 339.793C502.779 339.793 501 341.57 501 343.76V352.576C501 354.768 502.779 356.543 504.968 356.543Z" fill="#4095D1"/>
<path d="M507.024 344.641H517.165V351.694H507.024V344.641Z" fill="#4095D1"/>
<path d="M588 341C588.319 346.699 588.498 349.894 588.817 355.593C587.956 354.865 587.397 353.791 587.397 352.575V343.76C587.397 342.544 587.139 341.728 588 341Z" fill="#4095D1"/>
<path d="M579.167 344.641L588 344.5L588.5 351.694H579.167V344.641Z" fill="#4095D1"/>
<path d="M518.631 315.715C519.766 317.589 522.206 318.191 524.08 317.054L531.622 312.49C533.496 311.353 534.095 308.914 532.961 307.041C531.828 305.167 529.387 304.567 527.514 305.7L519.972 310.268C518.096 311.403 517.496 313.842 518.631 315.715Z" fill="#4095D1"/>
<path d="M529.094 323.638L535.129 319.985L529.878 311.312L523.846 314.965L529.094 323.638Z" fill="#4095D1"/>
<path d="M577.702 380.954C576.568 379.08 574.127 378.479 572.254 379.615L564.712 384.18C562.837 385.314 562.237 387.754 563.373 389.63C564.505 391.503 566.948 392.103 568.819 390.969L576.361 386.403C578.236 385.267 578.836 382.828 577.702 380.954Z" fill="#4095D1"/>
<path d="M567.238 373.032L561.205 376.684L566.455 385.359L572.487 381.704L567.238 373.032Z" fill="#4095D1"/>
<path d="M515.851 378.017C517.715 376.863 518.29 374.419 517.136 372.556L512.497 365.059C511.346 363.194 508.901 362.619 507.036 363.772C505.175 364.925 504.597 367.371 505.752 369.234L510.391 376.73C511.544 378.594 513.988 379.17 515.851 378.017Z" fill="#4095D1"/>
<path d="M523.669 367.475L519.958 361.477L511.338 366.813L515.05 372.81L523.669 367.475Z" fill="#4095D1"/>
<path d="M579.806 317.729C581.641 316.535 584.099 317.05 585.295 318.889L586 325L587 332.5C585.178 333.592 584.627 332.399 583.459 330.606L578.647 323.217C577.452 321.38 577.971 318.924 579.806 317.729Z" fill="#4095D1"/>
<path d="M572.235 328.449L576.084 334.358L584.578 328.827L580.729 322.913L572.235 328.449Z" fill="#4095D1"/>
<path d="M506.416 334.271C508.326 335.348 510.742 334.671 511.82 332.761L516.144 325.077C517.219 323.17 516.543 320.75 514.633 319.675C512.724 318.599 510.304 319.277 509.231 321.186L504.906 328.868C503.83 330.777 504.508 333.197 506.416 334.271Z" fill="#4095D1"/>
<path d="M519.422 336.03L522.883 329.884L514.047 324.91L510.589 331.055L519.422 336.03Z" fill="#4095D1"/>
<path d="M580.188 371.258L584.513 363.576C585.39 362.017 587.84 361.636 589.5 362V370.5L587.1 375.151C586.027 377.06 583.608 377.736 581.699 376.662C579.79 375.587 579.112 373.165 580.188 371.258Z" fill="#4095D1"/>
<path d="M576.91 360.307L573.45 366.452L582.285 371.427L585.745 365.279L576.91 360.307Z" fill="#4095D1"/>
<path d="M535.243 390.398C536.275 388.466 535.542 386.063 533.609 385.031L525.828 380.885C523.894 379.855 521.492 380.587 520.461 382.522C519.43 384.454 520.164 386.858 522.096 387.887L529.877 392.033C531.811 393.067 534.214 392.334 535.243 390.398Z" fill="#4095D1"/>
<path d="M536.699 377.355L530.476 374.038L525.706 382.987L531.931 386.302L536.699 377.355Z" fill="#4095D1"/>
<path d="M562.061 306.415C560.986 308.326 561.662 310.742 563.572 311.817L571.253 316.142C573.163 317.217 575.583 316.542 576.656 314.633C577.731 312.725 577.054 310.304 575.145 309.229L567.465 304.904C565.555 303.828 563.135 304.505 562.061 306.415Z" fill="#4095D1"/>
<path d="M560.304 319.422L566.449 322.881L571.421 314.047L565.276 310.586L560.304 319.422Z" fill="#4095D1"/>
<path d="M567.94 334.455C565.435 333.397 562.642 334.187 561.115 336.191C561.181 335.748 561.285 335.307 561.467 334.876C562.67 332.026 566.039 330.727 568.986 331.976C571.937 333.222 573.35 336.542 572.147 339.39C571.966 339.82 571.721 340.202 571.449 340.558C571.822 338.069 570.443 335.513 567.94 334.455Z" fill="#1380C4"/>
<path d="M522.638 334.321C520.398 335.863 519.558 338.642 520.426 341.007C520.087 340.711 519.772 340.388 519.507 340.003C517.753 337.455 518.472 333.917 521.112 332.105C523.751 330.289 527.309 330.885 529.062 333.432C529.327 333.816 529.516 334.23 529.67 334.649C527.773 332.994 524.878 332.782 522.638 334.321Z" fill="#1380C4"/>
<path d="M541.732 321.561C539.087 322.18 537.293 324.466 537.239 326.981C537.033 326.585 536.858 326.168 536.751 325.712C536.045 322.7 538.002 319.668 541.119 318.94C544.237 318.208 547.335 320.06 548.04 323.072C548.147 323.528 548.174 323.979 548.164 324.426C547.001 322.195 544.381 320.942 541.732 321.561Z" fill="#1380C4"/>
<path d="M547.37 364.546C544.722 365.166 542.93 367.45 542.876 369.968C542.668 369.569 542.495 369.154 542.387 368.698C541.682 365.685 543.64 362.653 546.757 361.924C549.875 361.194 552.973 363.046 553.677 366.057C553.784 366.514 553.811 366.965 553.802 367.412C552.638 365.18 550.018 363.928 547.37 364.546Z" fill="#1380C4"/>
<path d="M567.533 356.485C565.629 354.548 562.747 354.201 560.568 355.464C560.8 355.08 561.066 354.714 561.398 354.386C563.605 352.218 567.213 352.315 569.455 354.6C571.697 356.885 571.727 360.495 569.521 362.66C569.185 362.988 568.815 363.247 568.427 363.47C569.73 361.317 569.437 358.427 567.533 356.485Z" fill="#1380C4"/>
<path d="M545.933 342.145C543.217 342.106 540.925 343.891 540.266 346.321C540.162 345.885 540.091 345.439 540.098 344.973C540.139 341.878 542.769 339.406 545.971 339.45C549.172 339.495 551.733 342.037 551.692 345.128C551.686 345.597 551.602 346.042 551.486 346.472C550.892 344.027 548.65 342.182 545.933 342.145Z" fill="#1380C4"/>
<path d="M529.251 351.128C526.939 349.699 524.058 350.047 522.241 351.79C522.376 351.363 522.546 350.944 522.792 350.548C524.42 347.917 527.947 347.152 530.669 348.839C533.39 350.527 534.276 354.024 532.648 356.654C532.404 357.05 532.102 357.39 531.781 357.698C532.532 355.297 531.562 352.562 529.251 351.128Z" fill="#1380C4"/>
</g>
<g style="mix-blend-mode:color-dodge" opacity="0.6">
<path d="M479.128 197.446C479.128 207.194 487.03 215.097 496.779 215.097C506.528 215.097 514.429 207.194 514.429 197.446C514.429 187.696 506.528 179.794 496.779 179.794C487.031 179.794 479.128 187.696 479.128 197.446Z" fill="#4095D1"/>
<path d="M492.379 175.084C492.379 176.234 493.311 177.168 494.463 177.168H499.094C500.246 177.168 501.178 176.234 501.178 175.084C501.178 173.933 500.246 173 499.094 173H494.463C493.311 173 492.379 173.933 492.379 175.084Z" fill="#4095D1"/>
<path d="M494.927 176.165H498.632V181.491H494.927V176.165Z" fill="#4095D1"/>
<path d="M501.179 220.475C501.179 219.325 500.247 218.391 499.094 218.391H494.463C493.313 218.391 492.379 219.325 492.379 220.475C492.379 221.626 493.313 222.56 494.463 222.56H499.094C500.247 222.56 501.179 221.626 501.179 220.475Z" fill="#4095D1"/>
<path d="M494.927 214.068H498.632V219.394H494.927V214.068Z" fill="#4095D1"/>
<path d="M474.084 202.18C475.236 202.18 476.169 201.248 476.169 200.095V195.464C476.169 194.313 475.236 193.38 474.084 193.38C472.934 193.38 472 194.313 472 195.464V200.095C472 201.248 472.934 202.18 474.084 202.18Z" fill="#4095D1"/>
<path d="M475.165 195.927H480.492V199.633H475.165V195.927Z" fill="#4095D1"/>
<path d="M519.472 193.38C518.322 193.38 517.389 194.312 517.389 195.464V200.095C517.389 201.246 518.322 202.18 519.472 202.18C520.624 202.18 521.558 201.246 521.558 200.095V195.464C521.557 194.312 520.624 193.38 519.472 193.38Z" fill="#4095D1"/>
<path d="M513.067 195.927H518.392V199.633H513.067V195.927Z" fill="#4095D1"/>
<path d="M481.262 180.73C481.86 181.716 483.139 182.031 484.125 181.433L488.087 179.035C489.071 178.44 489.386 177.158 488.79 176.173C488.196 175.188 486.913 174.873 485.929 175.468L481.967 177.867C480.982 178.465 480.666 179.746 481.262 180.73Z" fill="#4095D1"/>
<path d="M484.006 180.328L487.174 178.41L489.932 182.967L486.763 184.885L484.006 180.328Z" fill="#4095D1"/>
<path d="M512.296 215.005C511.699 214.02 510.418 213.704 509.433 214.301L505.471 216.699C504.486 217.295 504.171 218.576 504.768 219.562C505.363 220.546 506.646 220.861 507.629 220.266L511.592 217.867C512.577 217.269 512.892 215.987 512.296 215.005Z" fill="#4095D1"/>
<path d="M506.798 210.842L503.629 212.76L506.386 217.319L509.555 215.398L506.798 210.842Z" fill="#4095D1"/>
<path d="M479.802 213.46C480.781 212.855 481.083 211.571 480.477 210.592L478.039 206.653C477.435 205.674 476.151 205.373 475.171 205.977C474.192 206.582 473.889 207.867 474.496 208.846L476.932 212.785C477.539 213.765 478.823 214.068 479.802 213.46Z" fill="#4095D1"/>
<path d="M479.379 210.722L477.428 207.569L481.958 204.767L483.908 207.919L479.379 210.722Z" fill="#4095D1"/>
<path d="M513.402 181.788C512.438 182.416 512.164 183.707 512.793 184.671L515.32 188.553C515.948 189.517 517.239 189.789 518.204 189.161C519.169 188.533 519.441 187.242 518.813 186.278L516.285 182.397C515.657 181.431 514.366 181.161 513.402 181.788Z" fill="#4095D1"/>
<path d="M509.424 187.419L511.446 190.524L515.908 187.618L513.886 184.512L509.424 187.419Z" fill="#4095D1"/>
<path d="M474.847 190.479C475.848 191.044 477.118 190.688 477.685 189.687L479.958 185.649C480.521 184.648 480.166 183.376 479.161 182.811C478.159 182.245 476.888 182.602 476.324 183.604L474.052 187.641C473.486 188.643 473.843 189.914 474.847 190.479Z" fill="#4095D1"/>
<path d="M481.678 191.403L483.496 188.175L478.854 185.561L477.038 188.79L481.678 191.403Z" fill="#4095D1"/>
<path d="M518.712 205.081C517.709 204.516 516.439 204.87 515.874 205.874L513.602 209.91C513.038 210.912 513.392 212.183 514.396 212.749C515.398 213.313 516.669 212.958 517.233 211.955L519.508 207.919C520.071 206.916 519.716 205.645 518.712 205.081Z" fill="#4095D1"/>
<path d="M511.88 204.157L510.062 207.385L514.704 209.999L516.521 206.769L511.88 204.157Z" fill="#4095D1"/>
<path d="M489.99 219.965C490.532 218.95 490.146 217.688 489.131 217.146L485.044 214.968C484.027 214.426 482.766 214.811 482.225 215.827C481.683 216.843 482.069 218.106 483.084 218.647L487.171 220.826C488.186 221.368 489.449 220.982 489.99 219.965Z" fill="#4095D1"/>
<path d="M490.755 213.113L487.485 211.37L484.979 216.072L488.25 217.814L490.755 213.113Z" fill="#4095D1"/>
<path d="M504.079 175.844C503.515 176.848 503.869 178.119 504.873 178.683L508.908 180.956C509.911 181.519 511.182 181.165 511.746 180.161C512.311 179.16 511.956 177.888 510.953 177.323L506.918 175.051C505.915 174.485 504.643 174.842 504.079 175.844Z" fill="#4095D1"/>
<path d="M505.772 178.033L509 179.85L506.388 184.491L503.16 182.674L505.772 178.033Z" fill="#4095D1"/>
<path d="M507.168 190.575C505.85 190.019 504.384 190.435 503.582 191.487C503.617 191.255 503.67 191.023 503.767 190.798C504.399 189.299 506.167 188.617 507.717 189.273C509.266 189.928 510.009 191.672 509.378 193.169C509.283 193.394 509.154 193.595 509.011 193.782C509.207 192.473 508.482 191.132 507.168 190.575Z" fill="#1380C4"/>
<path d="M483.367 190.505C482.19 191.316 481.749 192.775 482.205 194.018C482.028 193.862 481.863 193.693 481.722 193.49C480.801 192.152 481.178 190.293 482.566 189.341C483.953 188.386 485.821 188.7 486.742 190.039C486.882 190.241 486.98 190.457 487.062 190.677C486.065 189.808 484.544 189.696 483.367 190.505Z" fill="#1380C4"/>
<path d="M493.399 183.8C492.01 184.127 491.066 185.327 491.038 186.649C490.93 186.441 490.838 186.222 490.781 185.983C490.411 184.402 491.44 182.807 493.078 182.425C494.715 182.041 496.344 183.013 496.713 184.596C496.769 184.835 496.783 185.071 496.778 185.308C496.166 184.135 494.79 183.476 493.399 183.8Z" fill="#1380C4"/>
<path d="M496.36 206.384C494.969 206.71 494.029 207.91 494 209.232C493.891 209.022 493.798 208.804 493.742 208.565C493.372 206.983 494.402 205.39 496.038 205.006C497.677 204.624 499.304 205.597 499.675 207.178C499.73 207.416 499.744 207.656 499.74 207.89C499.128 206.717 497.752 206.059 496.36 206.384Z" fill="#1380C4"/>
<path d="M506.954 202.151C505.954 201.131 504.438 200.949 503.293 201.612C503.416 201.411 503.555 201.219 503.73 201.047C504.889 199.908 506.786 199.959 507.962 201.159C509.141 202.359 509.157 204.256 507.998 205.394C507.822 205.566 507.627 205.702 507.423 205.819C508.108 204.687 507.955 203.169 506.954 202.151Z" fill="#1380C4"/>
<path d="M495.605 194.615C494.178 194.596 492.974 195.533 492.629 196.809C492.573 196.582 492.537 196.347 492.541 196.102C492.563 194.477 493.944 193.177 495.625 193.2C497.309 193.223 498.653 194.558 498.632 196.182C498.628 196.428 498.585 196.663 498.523 196.888C498.211 195.605 497.034 194.635 495.605 194.615Z" fill="#1380C4"/>
<path d="M486.842 199.335C485.628 198.584 484.113 198.767 483.159 199.682C483.23 199.458 483.319 199.239 483.449 199.03C484.304 197.647 486.157 197.246 487.587 198.132C489.016 199.019 489.482 200.856 488.627 202.238C488.498 202.446 488.339 202.625 488.17 202.787C488.565 201.525 488.056 200.088 486.842 199.335Z" fill="#1380C4"/>
</g>
<g style="mix-blend-mode:color-dodge" opacity="0.6">
<path d="M478.128 481.446C478.128 491.194 486.03 499.097 495.779 499.097C505.528 499.097 513.429 491.194 513.429 481.446C513.429 471.696 505.528 463.794 495.779 463.794C486.031 463.794 478.128 471.696 478.128 481.446Z" fill="#4095D1"/>
<path d="M491.379 459.084C491.379 460.234 492.311 461.168 493.463 461.168H498.094C499.246 461.168 500.178 460.234 500.178 459.084C500.178 457.933 499.246 457 498.094 457H493.463C492.311 457 491.379 457.933 491.379 459.084Z" fill="#4095D1"/>
<path d="M493.927 460.165H497.632V465.491H493.927V460.165Z" fill="#4095D1"/>
<path d="M500.179 504.475C500.179 503.325 499.247 502.391 498.094 502.391H493.463C492.313 502.391 491.379 503.325 491.379 504.475C491.379 505.626 492.313 506.56 493.463 506.56H498.094C499.247 506.56 500.179 505.626 500.179 504.475Z" fill="#4095D1"/>
<path d="M493.927 498.068H497.632V503.394H493.927V498.068Z" fill="#4095D1"/>
<path d="M473.084 486.18C474.236 486.18 475.169 485.248 475.169 484.095V479.464C475.169 478.313 474.236 477.38 473.084 477.38C471.934 477.38 471 478.313 471 479.464V484.095C471 485.248 471.934 486.18 473.084 486.18Z" fill="#4095D1"/>
<path d="M474.165 479.927H479.492V483.633H474.165V479.927Z" fill="#4095D1"/>
<path d="M518.472 477.38C517.322 477.38 516.389 478.312 516.389 479.464V484.095C516.389 485.246 517.322 486.18 518.472 486.18C519.624 486.18 520.558 485.246 520.558 484.095V479.464C520.557 478.312 519.624 477.38 518.472 477.38Z" fill="#4095D1"/>
<path d="M512.067 479.927H517.392V483.633H512.067V479.927Z" fill="#4095D1"/>
<path d="M480.262 464.73C480.86 465.716 482.139 466.031 483.125 465.433L487.087 463.035C488.071 462.44 488.386 461.158 487.79 460.173C487.196 459.188 485.913 458.873 484.929 459.468L480.967 461.867C479.982 462.465 479.666 463.746 480.262 464.73Z" fill="#4095D1"/>
<path d="M483.006 464.328L486.174 462.41L488.932 466.967L485.763 468.884L483.006 464.328Z" fill="#4095D1"/>
<path d="M511.296 499.005C510.699 498.02 509.418 497.704 508.433 498.301L504.471 500.699C503.486 501.296 503.171 502.576 503.768 503.562C504.363 504.546 505.646 504.861 506.629 504.266L510.592 501.867C511.577 501.269 511.892 499.987 511.296 499.005Z" fill="#4095D1"/>
<path d="M505.798 494.842L502.629 496.76L505.386 501.319L508.555 499.398L505.798 494.842Z" fill="#4095D1"/>
<path d="M478.802 497.46C479.781 496.855 480.083 495.571 479.477 494.592L477.039 490.653C476.435 489.674 475.151 489.373 474.171 489.977C473.192 490.582 472.889 491.867 473.496 492.846L475.932 496.785C476.539 497.765 477.823 498.068 478.802 497.46Z" fill="#4095D1"/>
<path d="M478.379 494.722L476.428 491.569L480.958 488.767L482.908 491.919L478.379 494.722Z" fill="#4095D1"/>
<path d="M512.402 465.788C511.438 466.416 511.164 467.707 511.793 468.671L514.32 472.553C514.948 473.517 516.239 473.789 517.204 473.161C518.169 472.533 518.441 471.242 517.813 470.278L515.285 466.397C514.657 465.431 513.366 465.161 512.402 465.788Z" fill="#4095D1"/>
<path d="M508.424 471.419L510.446 474.524L514.908 471.618L512.886 468.512L508.424 471.419Z" fill="#4095D1"/>
<path d="M473.847 474.479C474.848 475.044 476.118 474.688 476.685 473.687L478.958 469.649C479.521 468.648 479.166 467.376 478.161 466.811C477.159 466.245 475.888 466.602 475.324 467.604L473.052 471.641C472.486 472.643 472.843 473.914 473.847 474.479Z" fill="#4095D1"/>
<path d="M480.678 475.403L482.496 472.175L477.854 469.561L476.038 472.79L480.678 475.403Z" fill="#4095D1"/>
<path d="M517.712 489.081C516.709 488.516 515.439 488.87 514.874 489.874L512.602 493.91C512.038 494.912 512.392 496.183 513.396 496.749C514.398 497.313 515.669 496.958 516.233 495.955L518.508 491.919C519.071 490.916 518.716 489.645 517.712 489.081Z" fill="#4095D1"/>
<path d="M510.88 488.157L509.062 491.385L513.704 493.999L515.521 490.769L510.88 488.157Z" fill="#4095D1"/>
<path d="M488.99 503.965C489.532 502.95 489.146 501.688 488.131 501.146L484.044 498.968C483.027 498.426 481.766 498.811 481.225 499.827C480.683 500.843 481.069 502.106 482.084 502.647L486.171 504.826C487.186 505.368 488.449 504.983 488.99 503.965Z" fill="#4095D1"/>
<path d="M489.755 497.113L486.485 495.37L483.979 500.072L487.25 501.814L489.755 497.113Z" fill="#4095D1"/>
<path d="M503.079 459.844C502.515 460.848 502.869 462.119 503.873 462.683L507.908 464.956C508.911 465.519 510.182 465.165 510.746 464.161C511.311 463.16 510.956 461.888 509.953 461.323L505.918 459.051C504.915 458.485 503.643 458.842 503.079 459.844Z" fill="#4095D1"/>
<path d="M504.772 462.033L508 463.85L505.388 468.491L502.16 466.674L504.772 462.033Z" fill="#4095D1"/>
<path d="M506.168 474.575C504.85 474.019 503.384 474.435 502.582 475.487C502.617 475.255 502.67 475.023 502.767 474.798C503.399 473.299 505.167 472.617 506.717 473.273C508.266 473.928 509.009 475.672 508.378 477.169C508.283 477.394 508.154 477.595 508.011 477.782C508.207 476.473 507.482 475.132 506.168 474.575Z" fill="#1380C4"/>
<path d="M482.367 474.505C481.19 475.316 480.749 476.775 481.205 478.018C481.028 477.862 480.863 477.693 480.722 477.49C479.801 476.152 480.178 474.293 481.566 473.341C482.953 472.386 484.821 472.7 485.742 474.039C485.882 474.241 485.98 474.457 486.062 474.677C485.065 473.808 483.544 473.696 482.367 474.505Z" fill="#1380C4"/>
<path d="M492.399 467.8C491.01 468.127 490.066 469.327 490.038 470.649C489.93 470.441 489.838 470.222 489.781 469.983C489.411 468.402 490.44 466.807 492.078 466.425C493.715 466.041 495.344 467.013 495.713 468.596C495.769 468.835 495.783 469.071 495.778 469.308C495.166 468.135 493.79 467.476 492.399 467.8Z" fill="#1380C4"/>
<path d="M495.36 490.384C493.969 490.71 493.029 491.91 493 493.232C492.891 493.022 492.798 492.804 492.742 492.565C492.372 490.983 493.402 489.39 495.038 489.006C496.677 488.624 498.304 489.597 498.675 491.178C498.73 491.416 498.744 491.656 498.74 491.89C498.128 490.717 496.752 490.059 495.36 490.384Z" fill="#1380C4"/>
<path d="M505.954 486.151C504.954 485.13 503.438 484.949 502.293 485.612C502.416 485.411 502.555 485.219 502.73 485.047C503.889 483.908 505.786 483.959 506.962 485.159C508.141 486.359 508.157 488.256 506.998 489.394C506.822 489.566 506.627 489.702 506.423 489.819C507.108 488.687 506.955 487.169 505.954 486.151Z" fill="#1380C4"/>
<path d="M494.605 478.615C493.178 478.596 491.974 479.533 491.629 480.809C491.573 480.582 491.537 480.347 491.541 480.102C491.563 478.477 492.944 477.177 494.625 477.2C496.309 477.223 497.653 478.558 497.632 480.182C497.628 480.428 497.585 480.663 497.523 480.888C497.211 479.605 496.034 478.635 494.605 478.615Z" fill="#1380C4"/>
<path d="M485.842 483.335C484.628 482.584 483.113 482.767 482.159 483.682C482.23 483.458 482.319 483.239 482.449 483.03C483.304 481.647 485.157 481.246 486.587 482.132C488.016 483.019 488.482 484.856 487.627 486.238C487.498 486.446 487.339 486.625 487.17 486.787C487.565 485.525 487.056 484.088 485.842 483.335Z" fill="#1380C4"/>
</g>
<g style="mix-blend-mode:color-dodge" opacity="0.6">
<path d="M257.128 84.4464C257.128 94.1938 265.03 102.097 274.779 102.097C284.528 102.097 292.429 94.1938 292.429 84.4464C292.429 74.6957 284.528 66.7938 274.779 66.7938C265.031 66.7938 257.128 74.6957 257.128 84.4464Z" fill="#4095D1"/>
<path d="M270.379 62.0837C270.379 63.234 271.311 64.1676 272.463 64.1676H277.094C278.246 64.1676 279.178 63.234 279.178 62.0837C279.178 60.9326 278.246 59.9999 277.094 59.9999H272.463C271.311 59.9999 270.379 60.9326 270.379 62.0837Z" fill="#4095D1"/>
<path d="M272.927 63.1655H276.632V68.4915H272.927V63.1655Z" fill="#4095D1"/>
<path d="M279.179 107.475C279.179 106.325 278.247 105.391 277.094 105.391H272.463C271.313 105.391 270.379 106.325 270.379 107.475C270.379 108.626 271.313 109.56 272.463 109.56H277.094C278.247 109.56 279.179 108.626 279.179 107.475Z" fill="#4095D1"/>
<path d="M272.927 101.068H276.632V106.394H272.927V101.068Z" fill="#4095D1"/>
<path d="M252.084 89.1802C253.236 89.1802 254.169 88.248 254.169 87.095V82.4635C254.169 81.3127 253.236 80.3796 252.084 80.3796C250.934 80.3796 250 81.3127 250 82.4635V87.095C250 88.2477 250.934 89.1802 252.084 89.1802Z" fill="#4095D1"/>
<path d="M253.165 82.9272H258.492V86.6327H253.165V82.9272Z" fill="#4095D1"/>
<path d="M297.472 80.3796C296.322 80.3796 295.389 81.312 295.389 82.4635V87.095C295.389 88.2459 296.322 89.1802 297.472 89.1802C298.624 89.1802 299.558 88.2459 299.558 87.095V82.4635C299.557 81.312 298.624 80.3796 297.472 80.3796Z" fill="#4095D1"/>
<path d="M291.067 82.9272H296.392V86.6327H291.067V82.9272Z" fill="#4095D1"/>
<path d="M259.262 67.73C259.86 68.7157 261.139 69.0308 262.125 68.4331L266.087 66.0349C267.071 65.4399 267.386 64.1577 266.79 63.1731C266.196 62.1879 264.913 61.873 263.929 62.4684L259.967 64.8673C258.982 65.4653 258.666 66.7464 259.262 67.73Z" fill="#4095D1"/>
<path d="M262.006 67.3277L265.174 65.4103L267.932 69.9671L264.763 71.8845L262.006 67.3277Z" fill="#4095D1"/>
<path d="M290.296 102.005C289.699 101.02 288.418 100.704 287.433 101.301L283.471 103.699C282.486 104.295 282.171 105.576 282.768 106.562C283.363 107.546 284.646 107.861 285.629 107.266L289.592 104.867C290.577 104.269 290.892 102.987 290.296 102.005Z" fill="#4095D1"/>
<path d="M284.798 97.8416L281.629 99.7604L284.386 104.319L287.555 102.398L284.798 97.8416Z" fill="#4095D1"/>
<path d="M257.802 100.46C258.781 99.8547 259.083 98.5711 258.477 97.5924L256.039 93.6528C255.435 92.6736 254.151 92.3734 253.171 92.9774C252.192 93.5824 251.889 94.8672 252.496 95.8463L254.932 99.7852C255.539 100.765 256.823 101.068 257.802 100.46Z" fill="#4095D1"/>
<path d="M257.379 97.7218L255.428 94.569L259.958 91.7666L261.908 94.9194L257.379 97.7218Z" fill="#4095D1"/>
<path d="M291.402 68.7884C290.438 69.4164 290.164 70.7073 290.793 71.6713L293.32 75.5532C293.948 76.5175 295.239 76.7892 296.204 76.1614C297.169 75.5334 297.441 74.2423 296.813 73.2783L294.285 69.3969C293.657 68.4314 292.366 68.1611 291.402 68.7884Z" fill="#4095D1"/>
<path d="M287.424 74.4189L289.446 77.5244L293.908 74.6185L291.886 71.5116L287.424 74.4189Z" fill="#4095D1"/>
<path d="M252.847 77.4795C253.848 78.0442 255.118 77.6881 255.685 76.6866L257.958 72.6487C258.521 71.6476 258.166 70.3761 257.161 69.8107C256.159 69.2452 254.888 69.602 254.324 70.6042L252.052 74.6408C251.486 75.6432 251.843 76.9136 252.847 77.4795Z" fill="#4095D1"/>
<path d="M259.678 78.4027L261.496 75.1751L256.854 72.5611L255.038 75.7898L259.678 78.4027Z" fill="#4095D1"/>
<path d="M296.712 92.0807C295.709 91.5162 294.439 91.8702 293.874 92.8738L291.602 96.9102C291.038 97.9119 291.392 99.1834 292.396 99.7489C293.398 100.313 294.669 99.958 295.233 98.9551L297.508 94.9187C298.071 93.9158 297.716 92.6454 296.712 92.0807Z" fill="#4095D1"/>
<path d="M289.88 91.1567L288.062 94.3848L292.704 96.999L294.521 93.7693L289.88 91.1567Z" fill="#4095D1"/>
<path d="M267.99 106.965C268.532 105.95 268.146 104.688 267.131 104.146L263.044 101.968C262.027 101.426 260.766 101.811 260.225 102.827C259.683 103.843 260.069 105.106 261.084 105.647L265.171 107.826C266.186 108.368 267.449 107.982 267.99 106.965Z" fill="#4095D1"/>
<path d="M268.755 100.113L265.485 98.3703L262.979 103.072L266.25 104.814L268.755 100.113Z" fill="#4095D1"/>
<path d="M282.079 62.8437C281.515 63.848 281.869 65.1186 282.873 65.6827L286.908 67.956C287.911 68.519 289.182 68.1653 289.746 67.161C290.311 66.1599 289.956 64.8884 288.953 64.323L284.918 62.0508C283.915 61.4854 282.643 61.8415 282.079 62.8437Z" fill="#4095D1"/>
<path d="M283.772 65.0327L287 66.8498L284.388 71.491L281.16 69.6739L283.772 65.0327Z" fill="#4095D1"/>
<path d="M285.168 77.5754C283.85 77.0192 282.384 77.4353 281.582 78.4871C281.617 78.2545 281.67 78.0229 281.767 77.7977C282.399 76.2994 284.167 75.6172 285.717 76.2731C287.266 76.9281 288.009 78.672 287.378 80.1689C287.283 80.3941 287.154 80.5948 287.011 80.7815C287.207 79.473 286.482 78.1319 285.168 77.5754Z" fill="#1380C4"/>
<path d="M261.367 77.5054C260.19 78.3157 259.749 79.7749 260.205 81.0176C260.028 80.8618 259.863 80.6929 259.722 80.4901C258.801 79.1516 259.178 77.2928 260.566 76.3408C261.953 75.3865 263.821 75.6998 264.742 77.0386C264.882 77.2414 264.98 77.4572 265.062 77.677C264.065 76.8081 262.544 76.6964 261.367 77.5054Z" fill="#1380C4"/>
<path d="M271.399 70.8005C270.01 71.1266 269.066 72.327 269.038 73.6492C268.93 73.4406 268.838 73.222 268.781 72.9831C268.411 71.4017 269.44 69.8069 271.078 69.4245C272.715 69.041 274.344 70.0134 274.713 71.5964C274.769 71.8348 274.783 72.0711 274.778 72.3077C274.166 71.1347 272.79 70.4756 271.399 70.8005Z" fill="#1380C4"/>
<path d="M274.36 93.3837C272.969 93.7098 272.029 94.9097 272 96.2324C271.891 96.0224 271.798 95.8038 271.742 95.5654C271.372 93.9833 272.402 92.3899 274.038 92.0056C275.677 91.624 277.304 92.5967 277.675 94.178C277.73 94.4164 277.744 94.6555 277.74 94.8897C277.128 93.717 275.752 93.0588 274.36 93.3837Z" fill="#1380C4"/>
<path d="M284.954 89.1506C283.954 88.1305 282.438 87.9489 281.293 88.6124C281.416 88.411 281.555 88.2189 281.73 88.0465C282.889 86.9076 284.786 86.959 285.962 88.1587C287.141 89.3593 287.157 91.2562 285.998 92.3938C285.822 92.5662 285.627 92.7015 285.423 92.8185C286.108 91.6872 285.955 90.1687 284.954 89.1506Z" fill="#1380C4"/>
<path d="M273.605 81.6152C272.178 81.5959 270.974 82.5329 270.629 83.8094C270.573 83.5817 270.537 83.3472 270.541 83.1021C270.563 81.4765 271.944 80.1768 273.625 80.2001C275.309 80.2227 276.653 81.5584 276.632 83.1821C276.628 83.4284 276.585 83.6629 276.523 83.888C276.211 82.6048 275.034 81.6349 273.605 81.6152Z" fill="#1380C4"/>
<path d="M264.842 86.3349C263.628 85.5842 262.113 85.7672 261.159 86.6824C261.23 86.4578 261.319 86.2394 261.449 86.03C262.304 84.6473 264.157 84.2459 265.587 85.132C267.016 86.0189 267.482 87.8563 266.627 89.2378C266.498 89.4465 266.339 89.6246 266.17 89.7872C266.565 88.5252 266.056 87.0878 264.842 86.3349Z" fill="#1380C4"/>
</g>
<path d="M375.904 169.808C395.733 169.808 411.808 153.733 411.808 133.904C411.808 114.075 395.733 98 375.904 98C356.075 98 340 114.075 340 133.904C340 153.733 356.075 169.808 375.904 169.808Z" fill="white" stroke="#164A4F" stroke-miterlimit="10"/>
<path d="M375.904 166.444C393.875 166.444 408.444 151.875 408.444 133.904C408.444 115.933 393.875 101.364 375.904 101.364C357.933 101.364 343.364 115.933 343.364 133.904C343.364 151.875 357.933 166.444 375.904 166.444Z" fill="white" stroke="#164A4F" stroke-miterlimit="10"/>
<path d="M365.349 112.359L375.904 133.904L388.711 125.917" fill="white"/>
<path d="M365.349 112.359L375.904 133.904L388.711 125.917" stroke="#164A4F" stroke-width="2" stroke-miterlimit="10" stroke-linecap="round" stroke-linejoin="round"/>
</svg>
