<svg width="222" height="268" viewBox="0 0 222 268" fill="none" xmlns="http://www.w3.org/2000/svg">
<mask id="mask0" mask-type="alpha" maskUnits="userSpaceOnUse" x="1" y="18" width="221" height="250">
<path d="M111.427 268C172.123 268 221.327 218.873 221.327 158.271C221.327 97.6689 172.123 18.5224 111.427 18.5224C50.7311 18.5224 1.52734 97.6689 1.52734 158.271C1.52734 218.873 50.7311 268 111.427 268Z" fill="#4D7B9E"/>
</mask>
<g mask="url(#mask0)">
<g opacity="0.3">
<path opacity="0.3" d="M110.659 267.234C171.355 267.234 220.559 218.106 220.559 157.504C220.559 96.9025 171.355 47.7751 110.659 47.7751C49.9635 47.7751 0.759766 96.9025 0.759766 157.504C0.759766 218.106 49.9635 267.234 110.659 267.234Z" fill="#4D7B9E"/>
</g>
<path d="M105.543 40.8771C105.543 40.8771 89.2951 39.2164 84.9451 57.7388C80.4673 76.1335 88.0157 84.4366 75.8615 90.4405C60.5088 98.1049 62.8117 118.16 70.488 122.248C78.1644 126.336 86.6083 102.959 105.543 116.5C124.606 130.168 147.251 129.018 143.285 116.5C139.319 103.981 132.538 106.536 130.108 90.9514C127.293 72.0458 136.76 61.4433 129.98 51.8628C123.327 42.2822 116.29 38.9609 105.543 40.8771Z" fill="#2C2D40"/>
<path d="M104.391 42.41C104.391 42.41 101.449 24.3985 87.7592 32.4462C76.2447 39.2164 84.6887 55.184 94.0282 50.8408C103.368 46.4977 104.391 42.41 104.391 42.41Z" fill="#2C2D40"/>
<path d="M115.906 133.234C115.906 133.234 137.656 189.312 148.403 204.13C163.755 225.207 182.946 180.498 182.946 180.498L162.732 177.432L142.518 117.649L115.906 133.234Z" fill="#D07786"/>
<path d="M183.969 161.464L152.88 160.57C151.601 160.57 150.705 159.165 151.217 158.015L170.408 113.051C170.663 112.412 171.431 111.901 172.199 111.901L203.288 112.795C204.567 112.795 205.463 114.2 204.951 115.35L185.632 160.315C185.376 161.081 184.737 161.464 183.969 161.464Z" fill="#2C2D40"/>
<path d="M187.039 161.593L155.95 160.698C154.671 160.698 153.775 159.293 154.287 158.144L173.606 113.179C173.862 112.54 174.629 112.029 175.397 112.029L206.486 112.923C207.766 112.923 208.661 114.328 208.149 115.478L188.831 160.443C188.447 161.082 187.807 161.593 187.039 161.593Z" fill="#2C2D40"/>
<path d="M186.913 136.683C186.273 138.854 183.97 140.643 181.795 140.643C179.62 140.643 178.341 138.854 178.853 136.683C179.492 134.511 181.795 132.723 183.97 132.723C186.273 132.723 187.553 134.511 186.913 136.683Z" fill="#59647A"/>
<path d="M155.95 154.566C156.078 154.566 156.333 154.439 156.333 154.311L173.349 114.583C173.477 114.328 173.349 114.072 173.093 114.072C172.838 113.945 172.582 114.072 172.582 114.328L155.566 154.055C155.438 154.311 155.566 154.566 155.822 154.566C155.822 154.566 155.822 154.566 155.95 154.566Z" fill="#59647A"/>
<path d="M202.65 134.511C202.65 134.511 204.569 127.23 203.417 124.93L200.475 131.828L202.65 134.511Z" fill="#8F3D4E"/>
<path d="M187.168 154.183C187.168 154.183 187.04 147.413 188.704 140.387C188.704 140.387 186.017 134.256 185.505 129.529C184.865 122.631 191.39 135.661 191.39 135.661C191.39 135.661 185.633 124.42 187.04 122.12C188.448 119.949 195.101 133.489 195.101 133.489C195.101 133.489 189.087 121.865 190.495 119.693C191.902 117.522 198.171 131.445 198.171 131.445C198.171 131.445 194.461 119.565 195.484 118.288C196.508 117.011 201.242 128.89 202.393 131.956C203.544 134.894 201.114 151.501 197.275 157.121C194.333 161.464 187.168 154.183 187.168 154.183Z" fill="#D07786"/>
<path d="M159.789 180.498C159.789 180.498 185.889 154.822 189.983 149.584L197.403 155.844L182.818 180.37H159.789V180.498Z" fill="#D07786"/>
<path d="M162.348 177.687C158.382 182.031 155.055 186.885 152.497 192.25C152.241 192.889 153.136 193.399 153.392 192.761C155.951 187.523 159.149 182.797 163.116 178.454C163.499 177.943 162.732 177.304 162.348 177.687Z" fill="#8F3D4E"/>
<path d="M156.846 184.713C155.183 185.096 153.776 185.863 152.368 186.757C151.856 187.14 152.368 188.034 152.88 187.651C154.159 186.757 155.567 186.118 157.102 185.607C157.742 185.48 157.486 184.585 156.846 184.713Z" fill="#8F3D4E"/>
<path d="M117.697 134.256L122.431 147.157L154.672 139.237C154.672 139.237 144.181 114.2 138.423 111.134C138.295 111.134 118.465 114.583 117.697 134.256Z" fill="#2B4B6B"/>
<path d="M182.945 371.215C182.817 373.897 182.689 376.452 182.433 379.007C176.804 475.196 173.478 478.134 173.478 478.134H154.415C154.415 478.134 147.25 378.24 143.412 364.317C138.934 348.221 105.158 245.262 105.158 245.262L157.229 222.141C157.229 222.141 172.838 289.461 182.05 365.083C182.561 367.127 182.817 369.171 182.945 371.215Z" fill="white"/>
<path d="M141.366 187.396C141.366 187.396 115.522 201.064 86.8638 189.95C86.8638 189.95 75.4772 214.86 75.8611 230.955C76.1169 247.051 146.995 241.941 156.719 228.784C162.476 220.991 141.366 187.396 141.366 187.396Z" fill="white"/>
<path d="M136.376 205.79C138.934 215.243 147.251 222.524 157.102 223.802C157.742 223.929 157.742 222.908 157.102 222.78C147.762 221.502 139.83 214.477 137.399 205.407C137.143 204.896 136.248 205.152 136.376 205.79Z" fill="#2B4B6B"/>
<path d="M143.413 193.655C125.757 203.746 103.624 205.535 84.561 198.126C84.0493 197.87 83.6655 198.765 84.1772 198.892C99.1461 204.641 116.034 204.896 131.387 199.914C135.737 198.509 139.959 196.593 143.925 194.294C144.437 194.038 143.925 193.399 143.413 193.655Z" fill="#2B4B6B"/>
<path d="M136.505 190.334C137.528 192.122 138.296 194.038 138.552 196.082C138.68 196.593 139.447 196.593 139.447 195.954C139.191 193.783 138.424 191.739 137.272 189.823C137.016 189.312 136.249 189.823 136.505 190.334Z" fill="#2B4B6B"/>
<path d="M94.6681 192.889C93.7725 195.443 93.2608 197.998 93.1328 200.808C93.1328 201.319 94.0284 201.319 94.0284 200.681C94.1563 198.126 94.5402 195.699 95.4357 193.272C95.6916 192.761 94.924 192.378 94.6681 192.889Z" fill="#2B4B6B"/>
<path d="M110.661 195.06C110.021 197.487 109.893 199.914 110.149 202.341C110.277 202.852 111.045 202.852 111.045 202.214C110.789 199.786 110.917 197.487 111.556 195.06C111.556 194.677 110.789 194.421 110.661 195.06Z" fill="#2B4B6B"/>
<path d="M127.093 198.496C128.29 198.394 129.178 197.343 129.076 196.148C128.974 194.953 127.921 194.067 126.724 194.168C125.527 194.269 124.639 195.32 124.741 196.515C124.843 197.71 125.896 198.597 127.093 198.496Z" fill="#2B4B6B"/>
<path d="M116.417 98.2327C116.417 98.2327 127.804 105.642 136.247 108.963C144.436 112.284 136.631 122.759 138.934 125.952C141.237 129.146 146.483 136.299 145.715 142.175C144.947 147.924 136.887 153.417 138.039 156.61C139.19 159.804 147.634 191.228 153.903 196.976C160.172 202.725 143.284 211.411 128.187 212.05C113.091 212.816 107.845 211.666 94.4114 212.05C78.8028 212.433 71.3824 204.002 74.7088 197.359C78.0352 190.589 83.7925 181.264 85.7116 168.49C87.7586 155.716 80.466 147.285 73.9411 127.613C65.6251 102.704 77.7793 99.1268 95.8187 96.3165C107.077 94.4004 116.417 98.2327 116.417 98.2327Z" fill="#2B4B6B"/>
<path d="M135.48 173.855C129.083 184.33 117.057 190.717 104.775 190.206C104.135 190.206 104.135 191.1 104.775 191.228C117.441 191.739 129.723 185.096 136.248 174.366C136.632 173.855 135.736 173.344 135.48 173.855Z" fill="#2C2D40"/>
<path d="M138.167 122.376C136.759 125.441 133.561 126.463 130.49 126.974C126.524 127.613 122.43 127.613 118.464 127.485C110.148 127.23 101.832 125.952 93.8999 123.525C93.2602 123.27 93.0043 124.292 93.644 124.547C102.344 127.102 111.428 128.507 120.511 128.507C126.268 128.507 136.12 129.146 139.062 122.759C139.318 122.376 138.423 121.737 138.167 122.376Z" fill="#2C2D40"/>
<path d="M135.481 154.95C123.071 154.311 110.66 155.588 98.6342 158.909C97.9945 159.037 98.2504 160.059 98.8901 159.931C110.788 156.61 123.199 155.333 135.481 155.971C136.12 155.971 136.12 154.95 135.481 154.95Z" fill="#2C2D40"/>
<path d="M78.8027 122.887C79.3145 128.635 83.1527 133.361 85.9673 138.215C89.2938 143.836 92.1084 149.712 93.5157 156.099C94.7951 162.614 94.0275 169.001 91.5967 175.005C89.2938 180.753 86.0953 185.99 83.2806 191.483C80.4659 196.848 78.5469 202.214 79.4424 208.345C79.5704 208.984 80.5939 208.728 80.4659 208.09C79.5704 201.958 81.7453 196.593 84.56 191.228C87.2467 186.118 90.0614 181.136 92.3643 175.899C94.6672 170.278 95.8187 164.53 94.9231 158.526C94.1554 152.65 91.9805 147.157 89.2937 141.92C87.6305 138.854 85.8394 135.916 84.0482 132.85C82.1292 129.785 80.2101 126.591 79.9542 122.759C79.8262 122.248 78.8027 122.248 78.8027 122.887Z" fill="#2C2D40"/>
<path d="M89.293 97.3385C90.3165 100.276 92.3635 102.831 94.9223 104.875C98.6325 107.813 103.238 110.24 107.844 111.645C111.81 112.923 116.544 112.795 119.359 109.346C121.15 107.047 121.662 104.236 121.79 101.426C121.406 101.171 121.15 101.043 120.766 100.787C120.766 103.598 120.382 106.408 118.591 108.58C115.776 112.156 110.787 111.645 107.077 110.24C100.68 107.813 92.8753 103.853 90.4444 97.083C89.9327 97.2107 89.5488 97.2107 89.293 97.3385Z" fill="#2C2D40"/>
<path d="M125.63 85.3308C123.199 85.3308 121.152 83.287 121.152 80.8599C121.152 78.4328 123.199 76.389 125.63 76.389C128.061 76.389 130.108 78.4328 130.108 80.8599C130.108 83.4147 128.189 85.3308 125.63 85.3308ZM125.63 77.4109C123.711 77.4109 122.176 78.9438 122.176 80.8599C122.176 82.776 123.711 84.3089 125.63 84.3089C127.549 84.3089 129.085 82.776 129.085 80.8599C129.085 78.9438 127.549 77.4109 125.63 77.4109Z" fill="white"/>
<path d="M95.8203 96.1888C95.8203 96.1888 106.183 109.602 116.93 101.298L115.907 94.9114L114.755 87.8856L113.988 82.9037L99.1467 74.0896L95.8203 96.1888Z" fill="#D07786"/>
<path d="M102.346 82.1373C108.487 94.4004 113.988 95.0391 115.907 94.7836L114.756 87.7579L102.346 82.1373Z" fill="#2C2D40"/>
<path d="M94.5409 70.5129C95.8203 75.4948 97.2276 77.0277 100.682 81.8818C103.88 86.225 109.382 88.3966 112.196 88.7798C122.432 89.8018 127.293 85.7141 126.398 71.7903C125.758 63.1039 128.317 58.3775 126.142 54.9285C126.014 54.8008 125.886 54.6731 125.758 54.4176C122.176 50.8408 117.442 48.797 112.324 48.6692C87.2484 48.0305 92.6218 63.4872 94.5409 70.5129Z" fill="#D07786"/>
<path d="M121.92 75.4948C121.92 75.4948 118.849 75.4948 112.836 75.3671C112.836 75.3671 113.859 81.7541 118.209 81.2431C121.792 80.9876 121.92 75.4948 121.92 75.4948Z" fill="white"/>
<path d="M121.24 71.0252C121.734 70.9937 122.097 70.3975 122.052 69.6934C122.008 68.9893 121.571 68.444 121.077 68.4755C120.584 68.507 120.22 69.1033 120.265 69.8073C120.31 70.5114 120.746 71.0567 121.24 71.0252Z" fill="#2C2D40"/>
<path d="M113.558 70.3854C114.052 70.3539 114.416 69.7576 114.371 69.0535C114.326 68.3494 113.889 67.8042 113.396 67.8356C112.902 67.8671 112.538 68.4634 112.583 69.1675C112.628 69.8716 113.065 70.4169 113.558 70.3854Z" fill="#2C2D40"/>
<path d="M122.943 48.5415C122.943 48.5415 128.701 55.184 128.445 60.0382C128.445 60.0382 117.314 44.5815 105.16 59.7827C105.16 59.7827 104.52 65.4033 102.217 66.4252C100.042 67.4471 96.46 67.5749 93.1336 69.2355C89.9351 70.7684 90.191 61.3156 92.6218 55.695C95.1806 50.0744 107.335 42.0267 122.943 48.5415Z" fill="#2C2D40"/>
<path d="M118.721 83.1592C117.698 83.5424 116.546 83.5425 115.779 82.776C115.395 82.3928 116.034 81.7541 116.418 82.1373C117.058 82.6483 117.826 82.5205 118.465 82.265C118.977 82.1373 119.233 82.9037 118.721 83.1592Z" fill="#8F3D4E"/>
<path d="M109.908 73.5805C111.322 73.5697 112.462 72.9319 112.456 72.1559C112.45 71.3798 111.3 70.7594 109.887 70.7702C108.474 70.781 107.333 71.4188 107.339 72.1949C107.345 72.9709 108.495 73.5913 109.908 73.5805Z" fill="#8F3D4E"/>
<path d="M122.047 72.8122C122.047 73.5787 123.198 74.0896 124.606 74.0896C125.245 74.0896 125.885 73.9619 126.397 73.7064C126.397 73.0677 126.397 72.429 126.269 71.7903C126.269 71.7903 126.269 71.7903 126.269 71.6626C125.757 71.5348 125.245 71.4071 124.606 71.4071C123.198 71.4071 122.047 72.0458 122.047 72.8122Z" fill="#8F3D4E"/>
<path d="M113.731 64.6368C112.708 64.2536 111.428 64.3813 110.917 65.531C110.533 66.5529 108.742 66.1697 109.253 65.02C110.021 62.9762 112.196 62.082 114.243 62.8485C115.266 63.3594 114.755 65.02 113.731 64.6368Z" fill="#2C2D40"/>
<path d="M123.967 65.9142C123.327 65.02 122.432 63.8704 121.152 64.1259C120.001 64.3813 119.617 62.7207 120.641 62.4652C122.56 61.9543 123.967 63.2317 125.118 64.6368C125.886 65.531 124.735 66.8084 123.967 65.9142Z" fill="#2C2D40"/>
<path d="M104.264 74.4729C104.904 72.6845 104.52 70.6407 103.497 69.1078C102.089 67.0639 99.6585 63.8704 97.2277 64.2536C93.7733 64.7646 93.2616 67.8304 93.6454 71.0239C94.0292 74.2174 96.0762 78.3051 100.554 77.6664C102.729 77.2832 103.753 75.878 104.264 74.4729Z" fill="#D07786"/>
<path d="M96.0755 84.3089C93.6447 84.3089 91.5977 82.2651 91.5977 79.838C91.5977 77.4109 93.6447 75.3671 96.0755 75.3671C98.5064 75.3671 100.553 77.4109 100.553 79.838C100.553 82.3928 98.5064 84.3089 96.0755 84.3089ZM96.0755 76.389C94.1564 76.389 92.6212 77.9219 92.6212 79.838C92.6212 81.7541 94.1564 83.287 96.0755 83.287C97.9946 83.287 99.5299 81.7541 99.5299 79.838C99.5299 77.9219 97.9946 76.389 96.0755 76.389Z" fill="white"/>
<path d="M99.6571 73.8342C99.913 72.5568 99.913 71.1516 99.5292 69.8742C99.1454 68.7246 97.866 67.0639 96.4587 67.5749C95.9469 67.7026 95.691 66.9362 96.2028 66.8084C97.6101 66.4252 98.8895 67.1917 99.6571 68.3413C100.809 70.002 100.809 72.0458 100.553 73.8342C100.297 74.4729 99.5292 74.3451 99.6571 73.8342Z" fill="#2C2D40"/>
<path d="M113.475 75.1116C113.347 75.1116 113.22 75.1116 113.092 75.1116C111.812 75.2393 110.661 74.7283 109.637 73.7064C108.742 72.8122 108.102 71.4071 107.974 70.0019C107.718 67.0639 109.637 64.5091 112.324 64.3814C113.603 64.2536 114.755 64.7646 115.778 65.7865C116.674 66.6807 117.314 68.0858 117.442 69.491C117.569 70.8961 117.186 72.3013 116.29 73.3232C115.522 74.3451 114.499 74.8561 113.475 75.1116ZM108.87 70.0019C108.998 71.2793 109.381 72.3013 110.277 73.1955C111.045 73.9619 112.068 74.3451 113.092 74.3451C114.115 74.2174 115.011 73.7064 115.65 72.8122C116.29 71.9181 116.674 70.7684 116.546 69.491C116.418 68.2136 116.034 67.1916 115.139 66.2975C114.371 65.531 113.347 65.1478 112.324 65.1478C110.277 65.4033 108.742 67.5749 108.87 70.0019Z" fill="white"/>
<path d="M119.616 73.5787C119.872 73.9619 120.128 74.2174 120.384 74.6006C121.28 75.6225 122.559 76.0058 123.838 76.0058C123.966 76.0058 124.094 76.0058 124.222 76.0058C125.374 75.878 126.397 75.2393 127.037 74.2174C127.805 73.1955 128.188 71.7903 128.188 70.3852C128.06 68.98 127.549 67.7026 126.525 66.6807C125.502 65.6588 124.35 65.1478 123.071 65.2755C120.512 65.4033 118.593 67.9581 118.721 70.8961C118.721 71.1516 118.721 71.2793 118.849 71.5348C118.977 71.5348 119.105 71.5348 119.233 71.5348C119.872 72.0458 120.128 72.94 119.616 73.5787ZM119.616 70.7684C119.489 68.2136 121.024 66.1697 123.199 65.9142C124.222 65.7865 125.246 66.2975 126.013 67.0639C126.781 67.8303 127.293 68.98 127.421 70.2574C127.549 71.5348 127.165 72.6845 126.525 73.5787C125.885 74.4729 124.862 74.9838 123.966 75.1116C122.943 75.2393 121.919 74.7283 121.152 73.9619C120.128 73.1955 119.616 72.0458 119.616 70.7684Z" fill="white"/>
<path d="M118.465 74.3451C119.105 74.3451 120.256 73.8342 120.256 72.6845C120.256 71.5348 119.233 71.0239 118.593 70.8961L118.081 69.3632C117.953 69.2355 117.825 69.1078 117.697 69.1078C117.569 69.2355 117.441 69.3632 117.441 69.491L118.081 71.1516C118.081 71.2794 118.209 71.4071 118.337 71.4071C118.337 71.4071 119.616 71.5348 119.616 72.5568C119.616 73.4509 118.465 73.5787 118.465 73.5787C118.337 73.5787 118.081 73.7064 118.209 73.9619C118.081 74.2174 118.209 74.3451 118.465 74.3451Z" fill="#2C2D40"/>
<path d="M119.234 69.2355C118.594 68.5968 117.827 68.4691 117.059 68.7245C116.675 68.8523 116.931 69.3632 117.315 69.2355C117.827 68.98 118.466 69.1078 118.85 69.491C119.106 69.8742 119.49 69.491 119.234 69.2355Z" fill="white"/>
<path d="M108.614 67.9581C106.823 66.042 104.392 64.8923 101.705 64.7646C101.322 64.7646 101.194 65.4033 101.577 65.4033C104.008 65.531 106.311 66.553 108.102 68.3413C108.486 68.5968 108.87 68.2136 108.614 67.9581Z" fill="white"/>
<path d="M105.672 89.1631C105.928 89.5463 106.44 89.9295 106.952 90.185C109.127 91.3346 113.093 91.9734 117.443 91.0792C124.224 89.674 124.991 85.0754 125.631 83.6702C126.143 82.5205 126.782 78.9438 126.654 76.6445C126.527 75.4948 126.271 74.6006 125.631 74.6006C121.793 74.0897 121.665 69.7465 118.722 72.0458C117.059 73.451 113.221 74.4729 111.43 74.9838C111.174 75.1116 110.79 75.2393 110.534 75.3671C110.534 75.2393 110.534 75.2393 110.406 75.1116C106.568 70.002 101.45 64.5091 100.043 65.2755L103.37 68.7245C103.37 68.7245 108.231 73.9619 108.743 78.3051C109.255 82.776 106.44 85.9695 106.44 85.9695C104.777 86.8637 101.578 83.9257 97.9961 78.4328C97.9961 78.4328 97.9961 79.0715 98.124 79.9657C98.5078 82.6483 105.672 89.1631 105.672 89.1631Z" fill="white"/>
<path d="M125.63 83.6702C124.991 85.0754 124.223 89.5463 117.442 91.0792C113.092 91.9734 109.126 91.4624 106.951 90.185C107.079 90.0572 107.207 89.9295 107.335 89.8018C111.301 85.9695 111.429 76.389 111.429 76.389C113.22 76.7722 117.954 73.9619 119.489 73.0677C121.024 72.0458 121.792 73.3232 122.56 74.2174C123.327 75.1116 125.119 75.4948 126.398 76.7722C126.782 78.9438 126.142 82.5205 125.63 83.6702Z" fill="#B0D4D8"/>
<path d="M118.466 77.1554C119.874 77.4109 121.281 77.5386 122.688 77.2832C123.2 77.1554 123.072 76.5167 122.56 76.5167C121.281 76.6445 120.002 76.6445 118.722 76.389C118.211 76.389 117.955 77.1554 118.466 77.1554Z" fill="#70B0C5"/>
<path d="M114.756 79.838C118.21 80.7322 121.536 80.8599 124.991 79.838C125.502 79.7102 125.374 78.9438 124.863 79.0716C121.536 79.9657 118.338 79.9657 115.011 79.0716C114.5 79.0716 114.244 79.7102 114.756 79.838Z" fill="#70B0C5"/>
<path d="M113.477 83.0315C116.931 84.0534 120.514 84.0534 123.968 83.0315C124.48 82.9038 124.352 82.1373 123.84 82.2651C120.514 83.1592 117.059 83.1592 113.733 82.2651C113.349 82.1373 113.093 82.9038 113.477 83.0315Z" fill="#70B0C5"/>
<path d="M112.454 86.4805C116.036 87.6302 119.618 87.6302 123.072 86.3528C123.584 86.225 123.2 85.4586 122.689 85.7141C119.362 86.8637 116.036 86.9915 112.581 85.8418C112.326 85.7141 112.07 86.3528 112.454 86.4805Z" fill="#70B0C5"/>
<path d="M124.989 50.8408C124.989 50.8408 125.629 58.2498 117.312 62.2098C117.312 62.2098 121.534 59.0163 119.999 53.3957C119.999 53.5234 122.046 48.9247 124.989 50.8408Z" fill="#2C2D40"/>
<path d="M75.8619 230.955C74.7104 258.803 92.4939 311.049 111.173 364.572C111.173 364.572 53.2166 434.063 42.0859 463.188L61.2768 474.685C61.2768 474.685 138.68 400.85 146.612 385.266C154.544 369.682 131.26 228.784 131.26 228.784L75.8619 230.955Z" fill="white"/>
<path d="M50.6577 459.611C50.5297 459.611 50.5297 459.611 50.4018 459.611C50.1459 459.483 50.018 459.1 50.1459 458.845C66.9059 426.654 116.674 368.276 120.896 363.422C113.988 353.97 105.16 330.976 97.3554 301.851C89.807 273.493 84.4336 244.113 83.4101 225.207C83.4101 224.951 83.6659 224.696 83.9218 224.696C84.1777 224.696 84.4336 224.951 84.4336 225.207C85.4571 244.113 90.8305 273.365 98.3789 301.596C106.183 330.976 115.011 353.97 121.92 363.167C122.048 363.422 122.048 363.678 121.92 363.806C121.408 364.444 68.4412 426.015 51.0415 459.356C51.0415 459.611 50.9135 459.611 50.6577 459.611Z" fill="#2B4B6B"/>
<path d="M96.8446 206.174C95.1814 216.776 87.1212 225.59 76.1184 226.357C75.4787 226.357 75.4787 227.379 76.1184 227.379C87.505 226.612 96.0769 217.542 97.7402 206.557C97.8681 205.918 96.8446 205.663 96.8446 206.174Z" fill="#2B4B6B"/>
<path d="M147.124 385.522C148.019 383.478 148.787 381.306 149.427 379.134C150.578 375.175 150.962 371.47 150.706 367.382C149.811 355.886 148.659 344.517 147.124 333.02C144.181 310.793 139.959 288.694 135.481 266.723C132.795 253.949 130.108 241.302 127.421 228.528C127.293 227.889 126.27 228.145 126.398 228.784C135.609 272.599 145.333 316.414 149.171 361.123C149.683 366.488 150.322 371.598 148.915 376.835C148.147 379.645 147.252 382.328 146.1 385.011C145.845 385.522 146.74 386.16 147.124 385.522Z" fill="#2B4B6B"/>
<path d="M133.306 227.634C133.05 231.849 134.713 235.554 135.481 239.642C136.248 243.729 135.865 248.711 131.771 250.755C131.131 251.011 131.643 252.032 132.282 251.649C141.494 247.051 134.073 234.787 134.329 227.634C134.457 226.995 133.434 226.995 133.306 227.634Z" fill="#2B4B6B"/>
<path d="M116.418 98.2327C116.418 98.2327 124.222 108.196 126.909 118.671C129.468 128.507 135.225 139.11 142.39 133.872C148.787 129.274 141.75 113.306 141.75 113.306C141.75 113.306 130.875 99.2546 116.418 98.2327Z" fill="#2C2D40"/>
<path d="M51.0407 132.212C51.0407 132.212 49.8893 135.661 57.8215 137.96C65.7537 140.259 63.1949 131.062 63.1949 131.062C63.1949 131.062 55.9024 126.847 51.0407 132.212Z" fill="#2C2D40"/>
<path d="M62.5546 120.332C62.5546 120.332 40.1653 159.931 41.8285 176.793C44.5152 204.513 118.592 169.384 120.255 164.275L113.602 157.377C113.602 157.377 69.0795 166.318 67.0325 164.786C64.9855 163.253 82.1293 134.511 82.1293 134.511C82.1293 134.511 77.9073 115.733 62.5546 120.332Z" fill="#D07786"/>
<path d="M74.196 104.364C74.196 104.364 56.5404 122.759 51.0391 132.212C51.0391 132.212 53.8537 128.89 60.5066 132.339C74.324 139.237 75.2195 149.073 75.2195 149.073L88.5252 129.401C88.5252 129.401 93.8987 107.941 74.196 104.364Z" fill="#2B4B6B"/>
<path d="M66.521 164.53C63.3225 165.169 60.252 166.446 57.5652 168.362C57.1814 168.618 57.5652 169.256 57.949 169.001C60.6358 167.085 63.5784 165.807 66.7768 165.297C67.1607 165.169 67.0327 164.402 66.521 164.53Z" fill="#8F3D4E"/>
<path d="M64.3457 165.169C62.5545 163.636 60.5075 162.358 58.4605 161.209C58.0767 160.953 57.5649 161.592 58.0767 161.848C60.1237 162.869 62.0428 164.147 63.8339 165.68C64.2177 166.063 64.7295 165.424 64.3457 165.169Z" fill="#8F3D4E"/>
<path d="M113.602 157.504C113.602 157.504 120.51 142.814 122.046 141.664C123.453 140.515 138.55 141.792 140.085 141.537C141.62 141.281 140.597 143.964 137.782 144.219C134.967 144.347 129.85 145.241 129.85 145.241C129.85 145.241 134.456 145.241 135.351 146.391C136.119 147.541 139.445 155.46 138.038 159.037C136.631 162.614 132.281 162.358 131.001 162.614C129.722 162.869 131.385 159.165 131.385 159.165C131.385 159.165 129.85 159.676 127.675 159.804C125.5 159.931 122.429 164.019 120.126 164.53C117.951 164.913 113.602 157.504 113.602 157.504Z" fill="#D07786"/>
<path d="M126.139 145.369C127.418 145.241 128.57 145.241 129.721 145.369C130.105 145.369 130.233 144.73 129.849 144.73C128.57 144.602 127.29 144.475 126.011 144.73C125.627 144.73 125.755 145.497 126.139 145.369Z" fill="#8F3D4E"/>
<path d="M129.594 148.818C131.769 148.307 134.072 147.796 135.991 149.073C136.375 149.329 136.759 148.818 136.503 148.562C134.328 147.157 131.769 147.668 129.338 148.179C128.955 148.307 129.083 148.946 129.594 148.818Z" fill="#8F3D4E"/>
<path d="M131.256 152.011C133.175 151.245 135.35 151.501 137.142 152.65C137.525 152.906 137.909 152.395 137.653 152.139C135.734 150.734 133.303 150.479 131.128 151.373C130.617 151.628 130.873 152.267 131.256 152.011Z" fill="#8F3D4E"/>
<path d="M131.385 159.42C132.793 158.782 133.944 157.632 134.456 156.099C134.584 155.716 133.944 155.333 133.816 155.844C133.432 157.121 132.537 158.271 131.257 158.782C130.746 158.909 131.001 159.676 131.385 159.42Z" fill="#8F3D4E"/>
<path d="M133.432 157.888C134.2 157.632 134.967 158.015 135.479 158.526C135.735 158.909 136.375 158.526 135.991 158.143C135.351 157.249 134.2 156.866 133.176 157.249C132.792 157.377 133.048 158.015 133.432 157.888Z" fill="#8F3D4E"/>
</g>
<path d="M191.003 14.9457L189.212 16.0953C189.212 16.0953 184.734 7.28122 183.711 6.13155L184.479 5.62059C184.99 7.02574 191.003 14.9457 191.003 14.9457Z" fill="#1C2F3C"/>
<path d="M184.576 6.84647C185.235 6.43467 185.434 5.56826 185.02 4.9113C184.606 4.25433 183.737 4.05559 183.078 4.46739C182.419 4.87918 182.22 5.74559 182.634 6.40255C183.048 7.05952 183.917 7.25826 184.576 6.84647Z" fill="#1C2F3C"/>
<path d="M200.855 14.9457L202.647 16.0953C202.647 16.0953 207.124 7.28123 208.148 6.13156L207.508 5.49286C206.869 7.02575 200.855 14.9457 200.855 14.9457Z" fill="#1C2F3C"/>
<path d="M209.055 6.40712C209.469 5.75016 209.27 4.88377 208.611 4.47197C207.952 4.06017 207.083 4.25891 206.669 4.91588C206.255 5.57284 206.454 6.43925 207.113 6.85105C207.772 7.26284 208.641 7.06409 209.055 6.40712Z" fill="#1C2F3C"/>
<path d="M191.003 31.8074L189.212 30.6578C189.212 30.6578 184.734 39.4719 183.711 40.6215L184.479 41.1325C184.99 39.7274 191.003 31.8074 191.003 31.8074Z" fill="#1C2F3C"/>
<path d="M185.022 41.8161C185.436 41.1591 185.237 40.2927 184.578 39.8809C183.919 39.4691 183.05 39.6679 182.636 40.3249C182.222 40.9818 182.421 41.8482 183.08 42.26C183.738 42.6718 184.608 42.4731 185.022 41.8161Z" fill="#1C2F3C"/>
<path d="M185.887 21.5882L186.654 19.6721C186.654 19.6721 177.187 16.6063 175.907 15.8398L175.523 16.6063C177.059 16.9895 185.887 21.5882 185.887 21.5882Z" fill="#1C2F3C"/>
<path d="M176.916 16.6664C177.218 15.9516 176.883 15.1281 176.167 14.827C175.451 14.5258 174.624 14.8611 174.322 15.5758C174.019 16.2905 174.354 17.1141 175.07 17.4152C175.787 17.7164 176.613 17.3811 176.916 16.6664Z" fill="#1C2F3C"/>
<path d="M204.564 27.9752L205.46 26.0591C205.46 26.0591 214.16 30.9132 215.567 31.4242L215.183 32.1907C213.904 31.2965 204.564 27.9752 204.564 27.9752Z" fill="#1C2F3C"/>
<path d="M216.852 32.3076C217.176 31.6021 216.866 30.7691 216.159 30.4468C215.451 30.1246 214.616 30.4353 214.292 31.1407C213.968 31.8462 214.278 32.6793 214.985 33.0015C215.693 33.3237 216.528 33.0131 216.852 32.3076Z" fill="#1C2F3C"/>
<path d="M195.994 36.4061C202.848 36.4061 208.404 30.8585 208.404 24.0153C208.404 17.172 202.848 11.6244 195.994 11.6244C189.14 11.6244 183.584 17.172 183.584 24.0153C183.584 30.8585 189.14 36.4061 195.994 36.4061Z" fill="#2B4B6B"/>
<path d="M196.762 13.5405H194.715C194.715 13.5405 195.61 3.70449 195.355 2.1716H196.25C195.994 3.70449 196.762 13.5405 196.762 13.5405Z" fill="#2B4B6B"/>
<path d="M195.737 3.449C196.515 3.449 197.145 2.81989 197.145 2.04385C197.145 1.26781 196.515 0.638702 195.737 0.638702C194.96 0.638702 194.33 1.26781 194.33 2.04385C194.33 2.81989 194.96 3.449 195.737 3.449Z" fill="#2B4B6B"/>
<path d="M196.762 33.2126H194.715C194.715 33.2126 195.61 43.0486 195.355 44.5815H196.25C195.994 43.0486 196.762 33.2126 196.762 33.2126Z" fill="#2B4B6B"/>
<path d="M195.737 46.1144C196.515 46.1144 197.145 45.4853 197.145 44.7092C197.145 43.9332 196.515 43.3041 195.737 43.3041C194.96 43.3041 194.33 43.9332 194.33 44.7092C194.33 45.4853 194.96 46.1144 195.737 46.1144Z" fill="#2B4B6B"/>
<path d="M187.294 27.9752L186.398 26.0591C186.398 26.0591 177.698 30.9132 176.291 31.4242L176.675 32.1907C177.954 31.2965 187.294 27.9752 187.294 27.9752Z" fill="#2B4B6B"/>
<path d="M176.909 33.1106C177.616 32.7884 177.926 31.9553 177.602 31.2498C177.278 30.5444 176.443 30.2337 175.735 30.5559C175.028 30.8782 174.718 31.7113 175.042 32.4167C175.366 33.1222 176.201 33.4328 176.909 33.1106Z" fill="#2B4B6B"/>
<path d="M205.973 21.5882L205.205 19.6721C205.205 19.6721 214.673 16.6063 215.952 15.8398L216.336 16.6063C214.801 16.9895 205.973 21.5882 205.973 21.5882Z" fill="#2B4B6B"/>
<path d="M216.731 17.4026C217.447 17.1015 217.783 16.2781 217.48 15.5633C217.177 14.8486 216.351 14.5133 215.635 14.8143C214.919 15.1154 214.583 15.9389 214.886 16.6536C215.189 17.3683 216.015 17.7037 216.731 17.4026Z" fill="#2B4B6B"/>
<path d="M200.855 31.8074L202.647 30.6578C202.647 30.6578 207.124 39.4719 208.148 40.6215L207.38 41.1325C206.869 39.7274 200.855 31.8074 200.855 31.8074Z" fill="#2B4B6B"/>
<path d="M208.625 42.2119C209.284 41.8001 209.482 40.9337 209.069 40.2767C208.655 39.6197 207.785 39.421 207.127 39.8328C206.468 40.2446 206.269 41.111 206.683 41.7679C207.097 42.4249 207.966 42.6237 208.625 42.2119Z" fill="#2B4B6B"/>
<path d="M191.459 19.1824C193.45 17.6015 194.456 15.5604 193.706 14.6233C192.956 13.6862 190.735 14.2081 188.744 15.789C186.753 17.3698 185.746 19.411 186.496 20.3481C187.246 21.2851 189.468 20.7632 191.459 19.1824Z" fill="#1C2F3C"/>
<path d="M189.54 24.8476C190.812 23.8376 191.45 22.5273 190.965 21.921C190.48 21.3147 189.056 21.6419 187.784 22.6519C186.512 23.6619 185.874 24.9721 186.359 25.5785C186.844 26.1848 188.268 25.8576 189.54 24.8476Z" fill="#1C2F3C"/>
<path d="M203.491 31.7738C204.763 30.7639 205.401 29.4538 204.916 28.8475C204.431 28.2411 203.007 28.5682 201.735 29.578C200.463 30.5879 199.825 31.898 200.31 32.5044C200.795 33.1107 202.219 32.7836 203.491 31.7738Z" fill="#1C2F3C"/>
<path d="M205.524 26.5862C206.133 26.1032 206.411 25.4436 206.147 25.1129C205.882 24.7821 205.175 24.9055 204.566 25.3885C203.958 25.8715 203.679 26.5311 203.944 26.8618C204.208 27.1925 204.916 27.0691 205.524 26.5862Z" fill="#1C2F3C"/>
<path d="M203.552 22.0541C205.266 20.6928 205.441 18.07 203.941 16.1959C202.442 14.3218 199.836 13.9061 198.122 15.2673C196.407 16.6286 196.233 19.2514 197.733 21.1256C199.232 22.9997 201.838 23.4154 203.552 22.0541Z" fill="#1C2F3C"/>
<path d="M196.215 23.5781C196.934 23.0073 197.017 21.9189 196.399 21.1472C195.782 20.3755 194.698 20.2127 193.98 20.7836C193.261 21.3545 193.178 22.4428 193.796 23.2145C194.413 23.9862 195.497 24.149 196.215 23.5781Z" fill="#1C2F3C"/>
<path d="M193.827 33.3637C194.161 32.509 193.149 31.3201 191.568 30.708C189.987 30.096 188.435 30.2926 188.102 31.1472C187.768 32.0018 188.78 33.1908 190.361 33.8028C191.942 34.4149 193.494 34.2183 193.827 33.3637Z" fill="#1C2F3C"/>
<path d="M17.1343 219.331L15.3432 220.48C15.3432 220.48 10.8653 211.666 9.8418 210.517L10.6094 210.006C11.2491 211.411 17.1343 219.331 17.1343 219.331Z" fill="#1C2F3C"/>
<path d="M10.8886 211.342C11.5474 210.93 11.7461 210.064 11.3323 209.407C10.9185 208.75 10.049 208.551 9.39018 208.963C8.73135 209.375 8.5327 210.241 8.94648 210.898C9.36026 211.555 10.2298 211.754 10.8886 211.342Z" fill="#1C2F3C"/>
<path d="M27.1133 219.331L28.9044 220.48C28.9044 220.48 33.3823 211.666 34.4058 210.517L33.6382 210.006C33.1264 211.411 27.1133 219.331 27.1133 219.331Z" fill="#1C2F3C"/>
<path d="M35.4124 210.861C35.8262 210.204 35.6275 209.338 34.9687 208.926C34.3099 208.514 33.4403 208.713 33.0266 209.37C32.6128 210.027 32.8114 210.893 33.4703 211.305C34.1291 211.717 34.9986 211.518 35.4124 210.861Z" fill="#1C2F3C"/>
<path d="M17.1343 236.193L15.3432 235.043C15.3432 235.043 10.8653 243.857 9.8418 245.007L10.6094 245.518C11.2491 244.113 17.1343 236.193 17.1343 236.193Z" fill="#1C2F3C"/>
<path d="M11.262 246.204C11.6758 245.547 11.4771 244.681 10.8183 244.269C10.1595 243.857 9.28995 244.056 8.87617 244.713C8.46239 245.37 8.66105 246.236 9.31987 246.648C9.9787 247.06 10.8482 246.861 11.262 246.204Z" fill="#1C2F3C"/>
<path d="M12.1463 225.973L12.9139 224.057C12.9139 224.057 3.44641 220.991 2.16702 220.225L1.7832 220.991C3.31847 221.375 12.1463 225.973 12.1463 225.973Z" fill="#1C2F3C"/>
<path d="M3.14226 221.049C3.44503 220.334 3.1098 219.51 2.39348 219.209C1.67715 218.908 0.851001 219.243 0.548225 219.958C0.245449 220.673 0.580702 221.496 1.29703 221.797C2.01335 222.099 2.83948 221.763 3.14226 221.049Z" fill="#1C2F3C"/>
<path d="M30.8242 232.36L31.7198 230.444C31.7198 230.444 40.4197 235.298 41.827 235.809L41.4432 236.576C40.1638 235.682 30.8242 232.36 30.8242 232.36Z" fill="#1C2F3C"/>
<path d="M43.0535 236.805C43.3774 236.099 43.0668 235.266 42.3597 234.944C41.6526 234.622 40.8167 234.932 40.4928 235.638C40.1689 236.343 40.4795 237.176 41.1866 237.499C41.8937 237.821 42.7295 237.51 43.0535 236.805Z" fill="#1C2F3C"/>
<path d="M22.1249 240.791C28.9788 240.791 34.535 235.244 34.535 228.4C34.535 221.557 28.9788 216.01 22.1249 216.01C15.271 216.01 9.71484 221.557 9.71484 228.4C9.71484 235.244 15.271 240.791 22.1249 240.791Z" fill="#2B4B6B"/>
<path d="M23.0207 217.926H20.8457C20.8457 217.926 21.7413 208.09 21.4854 206.557H22.381C22.253 208.09 23.0207 217.926 23.0207 217.926Z" fill="#2B4B6B"/>
<path d="M21.9972 207.834C22.7744 207.834 23.4045 207.205 23.4045 206.429C23.4045 205.653 22.7744 205.024 21.9972 205.024C21.2199 205.024 20.5898 205.653 20.5898 206.429C20.5898 207.205 21.2199 207.834 21.9972 207.834Z" fill="#2B4B6B"/>
<path d="M23.0207 237.598H20.8457C20.8457 237.598 21.7413 247.434 21.4854 248.967H22.381C22.253 247.434 23.0207 237.598 23.0207 237.598Z" fill="#2B4B6B"/>
<path d="M21.9972 250.5C22.7744 250.5 23.4045 249.87 23.4045 249.094C23.4045 248.318 22.7744 247.689 21.9972 247.689C21.2199 247.689 20.5898 248.318 20.5898 249.094C20.5898 249.87 21.2199 250.5 21.9972 250.5Z" fill="#2B4B6B"/>
<path d="M13.5535 232.36L12.658 230.444C12.658 230.444 3.95811 235.298 2.55078 235.809L2.9346 236.576C4.21399 235.682 13.5535 232.36 13.5535 232.36Z" fill="#2B4B6B"/>
<path d="M3.1585 237.492C3.86561 237.169 4.17622 236.336 3.85228 235.631C3.52834 234.925 2.69251 234.615 1.98541 234.937C1.2783 235.259 0.96768 236.092 1.29162 236.798C1.61556 237.503 2.4514 237.814 3.1585 237.492Z" fill="#2B4B6B"/>
<path d="M32.2325 225.973L31.4648 224.057C31.4648 224.057 40.9323 220.991 42.2117 220.225L42.4676 220.991C40.9323 221.375 32.2325 225.973 32.2325 225.973Z" fill="#2B4B6B"/>
<path d="M43.0068 221.764C43.7231 221.463 44.0583 220.64 43.7555 219.925C43.4528 219.21 42.6266 218.875 41.9103 219.176C41.194 219.477 40.8587 220.301 41.1615 221.016C41.4643 221.73 42.2904 222.066 43.0068 221.764Z" fill="#2B4B6B"/>
<path d="M27.1133 236.193L28.9044 235.043C28.9044 235.043 33.3823 243.857 34.4058 245.007L33.6382 245.518C33.1264 244.113 27.1133 236.193 27.1133 236.193Z" fill="#2B4B6B"/>
<path d="M34.8808 246.599C35.5396 246.187 35.7383 245.321 35.3245 244.664C34.9107 244.007 34.0412 243.808 33.3824 244.22C32.7235 244.632 32.5249 245.498 32.9387 246.155C33.3525 246.812 34.222 247.011 34.8808 246.599Z" fill="#2B4B6B"/>
<path d="M17.7204 223.563C19.7113 221.982 20.7175 219.941 19.9678 219.004C19.218 218.067 16.9963 218.589 15.0053 220.17C13.0144 221.75 12.0082 223.792 12.7579 224.729C13.5077 225.666 15.7294 225.144 17.7204 223.563Z" fill="#1C2F3C"/>
<path d="M15.8624 229.327C17.1344 228.317 17.7723 227.007 17.2873 226.401C16.8022 225.795 15.3779 226.122 14.1059 227.132C12.8339 228.141 12.1959 229.452 12.681 230.058C13.166 230.664 14.5904 230.337 15.8624 229.327Z" fill="#1C2F3C"/>
<path d="M29.7592 236.141C31.0312 235.131 31.669 233.821 31.1839 233.214C30.6988 232.608 29.2744 232.935 28.0024 233.945C26.7304 234.955 26.0925 236.265 26.5776 236.872C27.0628 237.478 28.4872 237.151 29.7592 236.141Z" fill="#1C2F3C"/>
<path d="M31.8644 231.067C32.4729 230.585 32.7516 229.925 32.487 229.594C32.2225 229.263 31.5148 229.387 30.9063 229.87C30.2979 230.353 30.0192 231.012 30.2837 231.343C30.5483 231.674 31.256 231.55 31.8644 231.067Z" fill="#1C2F3C"/>
<path d="M29.8098 226.434C31.5242 225.073 31.6985 222.45 30.199 220.576C28.6995 218.702 26.0941 218.286 24.3796 219.647C22.6652 221.009 22.491 223.631 23.9905 225.506C25.49 227.38 28.0954 227.795 29.8098 226.434Z" fill="#1C2F3C"/>
<path d="M22.3756 228.04C23.0946 227.469 23.1769 226.38 22.5594 225.609C21.942 224.837 20.8586 224.674 20.1397 225.245C19.4207 225.816 19.3384 226.904 19.9559 227.676C20.5733 228.448 21.6567 228.611 22.3756 228.04Z" fill="#1C2F3C"/>
<path d="M20.0347 237.876C20.3681 237.021 19.3567 235.832 17.7755 235.22C16.1944 234.607 14.6423 234.804 14.3088 235.659C13.9754 236.513 14.9869 237.702 16.568 238.314C18.1491 238.927 19.7012 238.73 20.0347 237.876Z" fill="#1C2F3C"/>
<path d="M35.8132 33.3403V40.1106H28.1368V47.775H21.484V40.1106H13.6797V33.3403H21.484V25.6759H28.1368V33.3403H35.8132Z" fill="white"/>
<path d="M221.838 187.523V194.166H214.033V201.958H207.38V194.166H199.576V187.523H207.38V179.859H214.033V187.523H221.838Z" fill="white"/>
<path d="M185.118 266.85C180.384 266.85 176.418 263.018 176.418 258.164C176.418 253.438 180.256 249.478 185.118 249.478C189.852 249.478 193.818 253.31 193.818 258.164C193.818 263.018 189.98 266.85 185.118 266.85ZM185.118 250.627C180.896 250.627 177.441 254.076 177.441 258.292C177.441 262.507 180.896 265.956 185.118 265.956C189.34 265.956 192.794 262.507 192.794 258.292C192.794 254.076 189.34 250.627 185.118 250.627Z" fill="white"/>
<path d="M72.7878 17.245C68.054 17.245 64.0879 13.4128 64.0879 8.55863C64.2158 3.83222 68.054 0 72.7878 0C77.5215 0 81.4876 3.83222 81.4876 8.68637C81.4876 13.4128 77.5215 17.245 72.7878 17.245ZM72.7878 1.02193C68.5658 1.02193 65.1114 4.47092 65.1114 8.68637C65.1114 12.9018 68.5658 16.3508 72.7878 16.3508C77.0097 16.3508 80.4641 12.9018 80.4641 8.68637C80.4641 4.34318 77.0097 1.02193 72.7878 1.02193Z" fill="white"/>
</svg>
